<svg id="svg" version="1.1" xmlns="http://www.w3.org/2000/svg" xmlns:xlink="http://www.w3.org/1999/xlink" width="400" height="61.37931034482759" viewBox="0, 0, 400,61.37931034482759"><g id="svgg"><path id="path0" d="M136.642 13.273 C 136.197 13.353,136.007 13.703,136.002 14.454 C 135.999 15.053,136.769 15.333,138.419 15.333 C 139.786 15.333,140.435 15.494,140.706 15.900 C 140.773 16.001,140.828 21.558,140.828 28.250 C 140.828 34.942,140.773 40.499,140.706 40.600 C 140.435 41.006,139.786 41.167,138.419 41.167 C 136.456 41.167,135.925 41.434,136.049 42.362 C 136.098 42.728,136.189 43.078,136.250 43.139 C 136.400 43.290,145.656 43.385,146.958 43.249 L 148.000 43.140 148.000 42.349 L 148.000 41.557 147.154 41.362 C 146.689 41.255,145.859 41.167,145.310 41.167 C 144.339 41.167,143.711 40.974,143.461 40.600 C 143.394 40.499,143.337 38.145,143.336 35.367 L 143.333 30.318 143.742 29.909 C 144.306 29.346,148.463 29.292,149.583 29.833 C 149.950 30.010,150.333 30.158,150.434 30.161 C 150.588 30.166,151.043 30.510,151.715 31.129 C 152.249 31.621,153.070 32.673,153.261 33.110 C 153.388 33.399,153.550 33.662,153.621 33.693 C 153.820 33.781,154.667 35.077,154.667 35.295 C 154.667 35.401,154.817 35.569,155.000 35.667 C 155.183 35.765,155.333 35.950,155.333 36.077 C 155.333 36.205,155.436 36.412,155.562 36.538 C 155.687 36.664,155.914 37.006,156.066 37.300 C 156.218 37.593,156.415 37.833,156.504 37.833 C 156.594 37.833,156.667 37.916,156.667 38.018 C 156.667 38.119,156.854 38.425,157.083 38.697 C 157.313 38.969,157.500 39.299,157.500 39.429 C 157.500 39.560,157.562 39.667,157.639 39.667 C 157.806 39.667,158.833 41.222,158.833 41.476 C 158.833 41.574,158.983 41.735,159.167 41.833 C 159.350 41.931,159.500 42.094,159.500 42.195 C 159.500 42.883,160.390 43.242,162.250 43.304 C 164.816 43.390,165.236 43.261,165.301 42.364 C 165.361 41.548,165.378 41.559,163.441 41.178 C 162.466 40.986,162.068 40.829,161.933 40.586 C 161.832 40.404,161.619 40.156,161.458 40.035 C 161.298 39.914,161.167 39.718,161.167 39.600 C 161.167 39.482,161.017 39.249,160.833 39.083 C 160.650 38.917,160.500 38.647,160.500 38.482 C 160.500 38.318,160.398 38.123,160.273 38.050 C 160.147 37.977,159.922 37.692,159.770 37.417 C 159.356 36.662,159.121 36.300,158.708 35.780 C 158.502 35.520,158.333 35.209,158.333 35.088 C 158.333 34.968,158.221 34.826,158.083 34.773 C 157.946 34.720,157.833 34.573,157.833 34.446 C 157.833 34.319,157.646 34.013,157.417 33.766 C 157.188 33.518,157.000 33.188,157.000 33.032 C 157.000 32.875,156.850 32.653,156.667 32.539 C 156.483 32.424,156.333 32.257,156.333 32.167 C 156.333 32.023,156.127 31.809,155.000 30.782 C 154.862 30.657,154.619 30.507,154.458 30.449 C 153.646 30.156,154.414 29.035,155.576 28.818 C 156.024 28.734,156.509 28.562,156.654 28.436 C 156.798 28.310,157.093 28.152,157.308 28.087 C 157.523 28.021,157.834 27.843,157.998 27.692 C 158.163 27.541,158.605 27.197,158.981 26.927 C 159.356 26.658,159.704 26.312,159.753 26.158 C 159.802 26.003,159.990 25.743,160.171 25.579 C 160.352 25.416,160.500 25.153,160.500 24.997 C 160.500 24.840,160.661 24.507,160.858 24.257 C 161.338 23.646,161.406 19.374,160.943 18.862 C 160.793 18.697,160.624 18.326,160.566 18.039 C 160.509 17.752,160.320 17.389,160.148 17.233 C 159.975 17.076,159.833 16.852,159.833 16.735 C 159.833 16.451,158.181 14.859,157.753 14.730 C 157.568 14.674,157.267 14.497,157.083 14.336 C 156.900 14.175,156.412 13.992,156.000 13.930 C 155.587 13.868,155.064 13.695,154.837 13.546 C 154.433 13.282,137.975 13.035,136.642 13.273 M170.500 13.287 C 167.917 13.600,169.230 15.552,172.083 15.640 C 173.092 15.672,174.010 15.774,174.125 15.869 C 174.288 16.004,174.333 18.684,174.333 28.241 L 174.333 40.442 173.958 40.787 C 173.645 41.075,173.307 41.144,171.917 41.205 C 169.470 41.313,168.648 41.888,169.591 42.833 L 170.007 43.250 182.321 43.295 L 194.634 43.340 195.150 42.905 L 195.667 42.470 195.667 38.560 C 195.667 33.872,195.519 33.337,194.226 33.335 C 193.292 33.333,193.288 33.351,193.178 37.329 L 193.083 40.741 192.667 40.951 C 192.065 41.255,178.267 41.255,177.667 40.951 L 177.250 40.740 177.206 34.455 C 177.152 26.626,176.624 27.500,181.405 27.500 C 185.831 27.500,185.623 27.375,185.708 30.076 C 185.748 31.338,185.770 31.407,186.167 31.502 C 187.503 31.821,187.536 31.692,187.468 26.369 C 187.412 21.924,187.432 22.008,186.378 22.003 C 185.751 22.000,185.710 22.107,185.626 23.977 C 185.547 25.721,185.686 25.667,181.313 25.667 C 178.242 25.667,177.651 25.627,177.429 25.405 C 177.087 25.063,177.030 16.204,177.367 15.867 C 177.662 15.571,192.720 15.579,192.965 15.875 C 193.064 15.994,193.162 17.304,193.194 18.941 C 193.244 21.470,193.287 21.839,193.567 22.150 C 194.078 22.713,194.715 22.605,195.227 21.866 L 195.667 21.232 195.667 17.709 C 195.667 14.224,195.662 14.180,195.264 13.718 L 194.862 13.250 182.973 13.233 C 176.434 13.224,170.821 13.249,170.500 13.287 M152.873 15.624 C 153.585 15.709,154.295 15.893,154.457 16.034 C 154.618 16.174,154.947 16.335,155.188 16.392 C 155.733 16.522,157.500 18.209,157.500 18.601 C 157.500 18.760,157.631 19.035,157.792 19.213 C 158.204 19.668,158.221 22.973,157.814 23.441 C 157.666 23.611,157.499 23.938,157.444 24.167 C 157.350 24.551,157.056 24.898,156.028 25.838 C 155.815 26.033,155.402 26.276,155.112 26.377 C 154.821 26.478,154.491 26.653,154.378 26.766 C 154.264 26.879,153.607 27.024,152.917 27.089 C 152.227 27.153,151.621 27.272,151.571 27.353 C 151.363 27.690,144.459 27.524,143.875 27.168 L 143.333 26.838 143.336 21.461 C 143.339 15.948,143.347 15.859,143.917 15.528 C 144.305 15.302,150.768 15.371,152.873 15.624 " stroke="none" fill="#573197" fill-rule="evenodd"></path><path id="path1" d="M136.500 12.882 C 135.756 13.247,135.750 13.258,135.701 14.187 C 135.624 15.650,136.163 16.026,138.279 15.987 C 139.141 15.971,139.883 15.994,139.927 16.039 C 140.028 16.140,140.030 40.359,139.929 40.460 C 139.889 40.500,139.094 40.544,138.163 40.558 C 136.110 40.589,135.665 40.900,135.669 42.301 C 135.674 43.885,136.113 44.000,142.121 44.000 C 144.702 44.000,146.855 43.934,146.905 43.852 C 146.955 43.771,147.259 43.655,147.579 43.595 C 148.650 43.394,148.887 41.933,147.989 41.073 C 147.504 40.608,147.397 40.581,145.882 40.546 C 145.005 40.525,144.254 40.476,144.214 40.436 C 144.015 40.237,144.164 30.599,144.369 30.424 C 144.515 30.299,145.457 30.269,147.339 30.329 L 150.095 30.417 150.699 30.917 C 151.246 31.369,152.769 33.144,153.291 33.935 C 153.405 34.108,153.967 34.952,154.541 35.810 C 155.114 36.667,155.681 37.549,155.801 37.768 C 155.920 37.987,156.089 38.167,156.176 38.167 C 156.262 38.167,156.333 38.275,156.333 38.408 C 156.333 38.541,156.521 38.852,156.750 39.099 C 156.979 39.346,157.167 39.625,157.167 39.719 C 157.167 39.812,157.282 40.007,157.423 40.153 C 157.564 40.298,157.920 40.791,158.215 41.249 C 158.509 41.707,158.862 42.204,159.000 42.354 C 159.137 42.504,159.362 42.776,159.500 42.958 C 160.134 43.799,164.003 44.503,164.405 43.852 C 164.456 43.770,164.703 43.652,164.955 43.589 C 165.560 43.437,165.661 43.244,165.664 42.237 C 165.668 40.987,165.208 40.609,163.583 40.527 C 162.380 40.466,162.346 40.452,161.954 39.857 C 161.733 39.523,161.054 38.494,160.443 37.569 C 159.833 36.645,159.333 35.812,159.333 35.720 C 159.333 35.627,159.183 35.416,159.000 35.250 C 158.817 35.084,158.667 34.864,158.667 34.761 C 158.667 34.658,158.517 34.446,158.333 34.289 C 158.150 34.132,158.000 33.902,158.000 33.777 C 158.000 33.653,157.850 33.416,157.667 33.250 C 157.483 33.084,157.333 32.881,157.333 32.798 C 157.333 32.492,155.897 30.853,155.297 30.475 C 154.955 30.259,154.696 30.018,154.720 29.938 C 154.789 29.709,156.207 29.000,156.597 29.000 C 156.790 29.000,157.084 28.850,157.250 28.667 C 157.416 28.483,157.659 28.333,157.791 28.333 C 158.355 28.333,160.833 25.924,160.833 25.377 C 160.833 25.244,160.983 24.945,161.167 24.712 C 161.350 24.479,161.500 24.055,161.501 23.769 C 161.502 23.484,161.614 23.035,161.751 22.773 C 162.030 22.237,162.086 20.820,161.838 20.571 C 161.749 20.482,161.603 19.893,161.514 19.262 C 161.424 18.630,161.280 18.070,161.194 18.015 C 161.108 17.961,160.927 17.654,160.792 17.333 C 160.514 16.671,158.411 14.333,158.093 14.333 C 157.978 14.333,157.711 14.183,157.500 14.000 C 157.289 13.817,156.995 13.667,156.847 13.667 C 156.699 13.667,156.317 13.527,155.998 13.356 C 155.566 13.125,154.869 13.013,153.291 12.922 C 152.122 12.855,151.124 12.732,151.073 12.650 C 150.840 12.273,137.302 12.488,136.500 12.882 M170.930 12.645 C 170.881 12.724,170.538 12.838,170.168 12.897 C 168.779 13.119,168.341 14.465,169.343 15.427 C 169.834 15.897,169.929 15.920,171.765 16.000 L 173.676 16.083 173.669 28.238 C 173.666 34.923,173.626 40.429,173.582 40.474 C 173.538 40.518,172.732 40.561,171.792 40.569 C 169.731 40.586,168.833 41.048,168.833 42.089 C 168.833 42.945,168.981 43.157,169.886 43.593 L 170.729 44.000 182.500 44.000 C 197.662 44.000,196.041 44.715,195.966 38.066 L 195.917 33.694 195.516 33.347 C 194.614 32.565,193.147 32.911,192.923 33.958 C 192.859 34.256,192.738 34.500,192.653 34.500 C 192.566 34.500,192.500 35.747,192.500 37.407 C 192.500 39.148,192.434 40.355,192.335 40.416 C 192.124 40.546,178.202 40.541,177.991 40.411 C 177.717 40.241,177.786 28.580,178.063 28.350 C 178.223 28.218,179.281 28.173,181.521 28.205 L 184.750 28.250 184.796 29.083 C 184.821 29.542,184.949 30.142,185.079 30.417 C 185.209 30.692,185.354 31.104,185.401 31.333 C 185.634 32.480,187.504 32.448,187.758 31.294 C 187.814 31.043,187.928 30.794,188.013 30.742 C 188.210 30.620,188.217 23.261,188.020 22.873 C 187.940 22.714,187.754 22.302,187.606 21.958 C 187.348 21.355,187.310 21.333,186.506 21.333 C 185.443 21.333,184.833 22.291,184.833 23.961 C 184.833 25.358,184.898 25.333,181.296 25.333 L 178.158 25.333 177.993 24.898 C 177.895 24.640,177.846 22.758,177.872 20.273 L 177.917 16.083 185.167 16.083 L 192.417 16.083 192.461 18.583 C 192.501 20.843,192.545 21.168,192.917 21.958 L 193.329 22.833 194.206 22.831 C 195.941 22.826,196.000 22.659,196.000 17.745 C 196.000 11.893,197.542 12.500,182.667 12.500 C 176.256 12.500,170.979 12.565,170.930 12.645 M152.667 13.077 C 154.858 13.281,156.322 13.596,157.000 14.010 C 157.137 14.094,157.512 14.308,157.833 14.484 C 158.459 14.828,160.000 16.262,160.000 16.499 C 160.000 16.578,160.099 16.742,160.219 16.863 C 160.590 17.237,161.333 18.953,161.337 19.448 C 161.339 19.706,161.413 20.217,161.500 20.583 C 161.718 21.495,161.397 23.939,160.981 24.535 C 160.808 24.783,160.665 25.046,160.664 25.118 C 160.640 26.132,157.934 28.336,155.981 28.932 C 155.558 29.061,155.015 29.321,154.774 29.511 L 154.336 29.856 155.554 31.053 C 156.660 32.139,157.833 33.647,157.833 33.983 C 157.833 34.055,157.983 34.251,158.167 34.417 C 158.350 34.583,158.500 34.808,158.500 34.917 C 158.500 35.026,158.648 35.249,158.829 35.413 C 159.010 35.577,159.203 35.852,159.258 36.025 C 159.347 36.305,160.754 38.513,161.924 40.208 C 162.343 40.817,162.383 40.833,163.386 40.834 C 164.942 40.835,165.500 41.231,165.500 42.335 C 165.500 43.368,165.270 43.494,163.147 43.623 C 161.255 43.738,160.161 43.479,159.640 42.794 C 159.425 42.512,159.173 42.199,159.079 42.099 C 158.985 41.999,158.669 41.542,158.377 41.083 C 158.085 40.625,157.730 40.131,157.590 39.986 C 157.449 39.841,157.333 39.640,157.333 39.540 C 157.333 39.441,157.147 39.138,156.920 38.868 C 156.585 38.469,155.420 36.756,153.455 33.772 C 151.325 30.539,150.077 29.833,146.485 29.833 C 144.613 29.833,144.405 29.864,144.052 30.196 L 143.667 30.558 143.667 35.523 C 143.667 41.307,143.484 40.833,145.714 40.833 C 147.781 40.833,148.517 41.386,148.262 42.744 C 148.113 43.539,147.227 43.668,141.931 43.663 C 136.259 43.657,135.841 43.563,135.836 42.284 C 135.831 41.173,136.394 40.833,138.237 40.833 C 139.345 40.833,139.860 40.763,140.130 40.574 L 140.500 40.314 140.500 28.250 L 140.500 16.186 140.130 15.926 C 139.862 15.739,139.349 15.667,138.280 15.667 C 136.168 15.667,135.153 14.663,135.968 13.380 C 136.327 12.814,147.649 12.609,152.667 13.077 M194.948 13.158 C 195.850 13.567,195.867 13.664,195.802 18.195 C 195.742 22.349,195.637 22.667,194.316 22.667 C 193.098 22.667,192.836 21.925,192.834 18.476 C 192.833 16.405,192.793 16.020,192.570 15.934 C 192.225 15.802,178.108 15.802,177.764 15.934 C 177.356 16.091,177.367 24.744,177.776 25.195 C 178.025 25.471,178.366 25.500,181.327 25.500 C 185.309 25.500,185.183 25.556,185.325 23.732 C 185.478 21.772,186.086 21.081,187.082 21.734 C 187.697 22.137,187.750 22.552,187.750 27.000 C 187.750 31.657,187.711 31.833,186.693 31.833 C 185.672 31.833,185.519 31.610,185.392 29.932 C 185.228 27.752,185.383 27.833,181.388 27.833 C 178.571 27.833,178.067 27.872,177.805 28.109 C 177.319 28.549,177.335 40.400,177.822 40.661 C 178.264 40.897,192.069 40.897,192.511 40.661 C 192.810 40.501,192.833 40.286,192.833 37.728 C 192.833 35.713,192.904 34.725,193.095 34.067 L 193.357 33.167 194.167 33.167 C 195.728 33.167,195.833 33.511,195.833 38.602 L 195.833 42.683 195.414 43.071 C 194.774 43.665,194.731 43.667,182.316 43.667 C 169.577 43.667,169.513 43.662,169.153 42.715 C 168.690 41.495,169.706 40.833,172.043 40.833 C 173.032 40.833,173.673 40.760,173.800 40.633 C 173.952 40.481,174.000 37.497,174.000 28.220 L 174.000 16.006 173.625 15.925 C 173.419 15.881,172.526 15.823,171.642 15.797 C 169.615 15.738,168.795 15.126,169.102 13.901 C 169.352 12.904,169.736 12.875,182.833 12.857 C 193.718 12.841,194.283 12.855,194.948 13.158 M143.958 15.886 C 143.469 16.279,143.516 26.574,144.008 26.837 C 144.771 27.246,153.108 26.973,154.307 26.500 C 158.067 25.017,159.081 20.252,156.234 17.445 C 155.795 17.011,155.243 16.611,155.009 16.555 C 154.775 16.499,154.283 16.301,153.917 16.115 C 153.039 15.670,144.472 15.473,143.958 15.886 M153.623 16.286 C 153.661 16.398,153.964 16.541,154.299 16.603 C 155.474 16.824,157.167 18.436,157.167 19.336 C 157.167 19.587,157.279 19.886,157.417 20.000 C 157.757 20.282,157.753 22.289,157.411 22.740 C 157.277 22.918,157.166 23.256,157.165 23.490 C 157.164 23.768,156.907 24.178,156.429 24.667 C 155.251 25.871,155.089 25.991,154.488 26.105 C 154.174 26.164,153.778 26.333,153.608 26.481 C 153.253 26.790,144.594 26.994,144.300 26.700 C 144.092 26.492,144.098 16.146,144.307 16.016 C 144.634 15.813,153.552 16.072,153.623 16.286 " stroke="none" fill="#ffffff" fill-rule="evenodd"></path><path id="path2" d="M136.387 12.479 C 136.339 12.664,136.139 12.838,135.943 12.866 C 135.745 12.894,135.559 13.063,135.524 13.246 C 135.489 13.427,135.366 13.652,135.250 13.746 C 134.833 14.083,134.813 15.959,135.226 15.987 C 135.422 16.000,136.521 16.052,137.667 16.101 L 139.750 16.192 139.750 28.263 L 139.750 40.333 137.972 40.333 C 135.991 40.333,135.667 40.403,135.667 40.829 C 135.667 40.990,135.517 41.312,135.333 41.545 C 134.939 42.047,134.899 42.638,135.250 42.773 C 135.387 42.826,135.500 43.013,135.500 43.189 C 135.500 43.371,135.669 43.572,135.894 43.658 C 136.111 43.740,136.334 43.929,136.391 44.077 C 136.555 44.505,147.445 44.390,147.687 43.958 C 147.777 43.798,147.991 43.667,148.164 43.667 C 148.341 43.667,148.528 43.507,148.594 43.299 C 148.658 43.097,148.813 42.830,148.939 42.704 C 149.247 42.396,149.226 42.120,148.856 41.647 C 148.686 41.429,148.496 41.089,148.434 40.893 C 148.287 40.424,147.906 40.338,145.956 40.336 L 144.328 40.333 144.372 35.458 L 144.417 30.583 145.917 30.530 C 148.096 30.453,150.167 30.643,150.167 30.920 C 150.167 31.043,150.317 31.192,150.500 31.250 C 150.683 31.308,150.833 31.454,150.833 31.575 C 150.833 31.696,150.983 31.834,151.167 31.882 C 151.350 31.930,151.500 32.083,151.500 32.223 C 151.500 32.363,151.642 32.523,151.815 32.578 C 151.989 32.633,152.169 32.825,152.216 33.006 C 152.264 33.186,152.422 33.333,152.568 33.333 C 152.718 33.333,152.833 33.472,152.833 33.653 C 152.833 34.150,153.013 34.500,153.268 34.500 C 153.396 34.500,153.500 34.657,153.500 34.849 C 153.500 35.052,153.633 35.233,153.818 35.281 C 154.020 35.334,154.174 35.570,154.242 35.930 C 154.300 36.241,154.494 36.574,154.674 36.671 C 154.853 36.767,155.000 36.938,155.000 37.052 C 155.000 37.166,155.150 37.388,155.333 37.545 C 155.517 37.702,155.667 37.978,155.667 38.159 C 155.667 38.340,155.817 38.569,156.000 38.667 C 156.183 38.765,156.333 38.992,156.333 39.173 C 156.333 39.389,156.446 39.500,156.667 39.500 C 156.884 39.500,157.000 39.611,157.000 39.820 C 157.000 40.316,157.180 40.667,157.434 40.667 C 157.568 40.667,157.667 40.835,157.667 41.064 C 157.667 41.321,157.784 41.492,158.000 41.548 C 158.183 41.596,158.333 41.765,158.333 41.923 C 158.333 42.081,158.480 42.339,158.660 42.494 C 158.840 42.650,159.063 42.978,159.156 43.222 C 159.283 43.557,159.440 43.667,159.789 43.667 C 160.073 43.667,160.334 43.796,160.461 44.000 C 160.764 44.484,164.687 44.511,165.032 44.031 C 165.152 43.864,165.381 43.679,165.542 43.619 C 165.714 43.555,165.833 43.338,165.833 43.089 C 165.833 42.825,165.927 42.667,166.083 42.667 C 166.457 42.667,166.397 41.796,166.000 41.455 C 165.817 41.298,165.667 41.055,165.667 40.914 C 165.667 40.531,164.955 40.333,163.572 40.333 C 162.444 40.333,162.333 40.303,162.333 40.000 C 162.333 39.817,162.183 39.517,162.000 39.333 C 161.817 39.150,161.667 38.880,161.667 38.734 C 161.667 38.588,161.517 38.430,161.333 38.382 C 161.122 38.326,161.000 38.154,161.000 37.911 C 161.000 37.559,160.739 37.161,159.953 36.311 C 159.790 36.134,159.613 35.774,159.560 35.510 C 159.505 35.232,159.332 34.995,159.149 34.947 C 158.975 34.902,158.833 34.742,158.833 34.592 C 158.833 34.442,158.683 34.158,158.500 33.962 C 158.317 33.765,158.167 33.461,158.167 33.286 C 158.167 33.109,158.020 32.930,157.833 32.882 C 157.650 32.834,157.500 32.657,157.500 32.490 C 157.500 32.323,157.355 32.084,157.178 31.960 C 157.002 31.836,156.806 31.532,156.744 31.284 C 156.681 31.036,156.524 30.833,156.393 30.833 C 156.263 30.833,156.111 30.715,156.055 30.571 C 156.000 30.426,155.759 30.225,155.519 30.124 C 155.092 29.944,155.091 29.939,155.459 29.875 C 155.665 29.839,155.912 29.665,156.006 29.488 C 156.125 29.267,156.356 29.167,156.750 29.167 C 157.151 29.167,157.375 29.067,157.500 28.833 C 157.619 28.612,157.849 28.500,158.188 28.500 C 158.558 28.500,158.722 28.408,158.785 28.167 C 158.833 27.983,158.944 27.833,159.032 27.833 C 159.253 27.833,160.167 26.901,160.167 26.675 C 160.167 26.574,160.354 26.420,160.583 26.333 C 160.890 26.217,161.000 26.052,161.000 25.711 C 161.000 25.427,161.130 25.166,161.333 25.039 C 161.586 24.881,161.667 24.650,161.667 24.082 C 161.667 23.532,161.732 23.333,161.913 23.333 C 162.468 23.333,162.507 19.954,161.957 19.646 C 161.741 19.525,161.667 19.268,161.667 18.643 C 161.667 17.942,161.611 17.788,161.333 17.715 C 161.098 17.653,161.000 17.488,161.000 17.151 C 161.000 16.826,160.867 16.587,160.583 16.401 C 160.354 16.251,160.167 16.063,160.167 15.982 C 160.167 15.798,159.166 14.833,158.975 14.833 C 158.897 14.833,158.833 14.719,158.833 14.579 C 158.833 14.439,158.656 14.258,158.439 14.175 C 158.223 14.093,158.000 13.907,157.945 13.763 C 157.879 13.593,157.638 13.500,157.261 13.500 C 156.849 13.500,156.626 13.402,156.500 13.167 C 156.342 12.872,156.151 12.833,154.836 12.833 C 153.594 12.833,153.323 12.785,153.187 12.542 C 152.912 12.051,136.515 11.990,136.387 12.479 M170.012 12.488 C 169.836 12.664,169.479 12.833,169.221 12.863 L 168.750 12.917 168.750 14.284 C 168.750 16.096,168.716 16.071,171.341 16.138 L 173.500 16.193 173.500 28.263 L 173.500 40.333 171.531 40.333 C 168.964 40.333,168.620 40.589,168.700 42.434 C 168.749 43.550,168.763 43.585,169.208 43.636 C 169.460 43.665,169.667 43.788,169.667 43.910 C 169.667 44.318,170.149 44.333,182.588 44.333 C 194.530 44.333,194.989 44.322,195.201 44.020 C 195.321 43.848,195.569 43.678,195.752 43.643 C 196.090 43.578,196.367 34.955,196.081 33.369 L 195.983 32.821 194.450 32.869 C 192.961 32.915,192.915 32.929,192.858 33.329 C 192.826 33.556,192.658 33.842,192.483 33.964 C 192.192 34.168,192.167 34.428,192.167 37.259 L 192.167 40.333 185.167 40.333 L 178.167 40.333 178.167 34.417 L 178.167 28.500 181.375 28.500 L 184.583 28.500 184.593 29.687 C 184.600 30.537,184.673 30.928,184.852 31.062 C 184.988 31.165,185.174 31.510,185.263 31.828 C 185.499 32.666,187.667 33.050,187.667 32.255 C 187.667 32.129,187.854 31.803,188.083 31.530 L 188.500 31.035 188.500 26.690 C 188.500 22.516,188.487 22.338,188.167 22.167 C 187.979 22.066,187.833 21.818,187.833 21.597 C 187.833 21.161,187.478 21.006,186.472 21.002 C 185.715 20.999,185.333 21.138,185.333 21.414 C 185.333 21.531,185.166 21.737,184.962 21.873 C 184.639 22.087,184.585 22.283,184.555 23.351 C 184.536 24.029,184.516 24.621,184.511 24.667 C 184.505 24.712,183.094 24.733,181.375 24.713 L 178.250 24.676 178.206 20.422 L 178.161 16.167 185.164 16.167 L 192.167 16.167 192.167 18.991 C 192.167 21.566,192.194 21.834,192.480 22.034 C 192.652 22.155,192.822 22.403,192.857 22.585 C 192.963 23.137,195.950 23.180,196.084 22.631 C 196.398 21.345,196.081 12.916,195.716 12.864 C 195.514 12.836,195.303 12.667,195.247 12.489 C 195.086 11.985,170.517 11.983,170.012 12.488 M151.073 12.650 C 151.124 12.732,152.122 12.855,153.291 12.922 C 154.869 13.013,155.566 13.125,155.998 13.356 C 156.317 13.527,156.699 13.667,156.847 13.667 C 156.995 13.667,157.289 13.817,157.500 14.000 C 157.711 14.183,157.978 14.333,158.093 14.333 C 158.411 14.333,160.514 16.671,160.792 17.333 C 160.927 17.654,161.108 17.961,161.194 18.015 C 161.280 18.070,161.424 18.630,161.514 19.262 C 161.603 19.893,161.749 20.482,161.838 20.571 C 162.086 20.820,162.030 22.237,161.751 22.773 C 161.614 23.035,161.502 23.484,161.501 23.769 C 161.500 24.055,161.350 24.479,161.167 24.712 C 160.983 24.945,160.833 25.244,160.833 25.377 C 160.833 25.924,158.355 28.333,157.791 28.333 C 157.659 28.333,157.416 28.483,157.250 28.667 C 157.084 28.850,156.790 29.000,156.597 29.000 C 156.207 29.000,154.789 29.709,154.720 29.938 C 154.696 30.018,154.955 30.259,155.297 30.475 C 155.897 30.853,157.333 32.492,157.333 32.798 C 157.333 32.881,157.483 33.084,157.667 33.250 C 157.850 33.416,158.000 33.653,158.000 33.777 C 158.000 33.902,158.150 34.132,158.333 34.289 C 158.517 34.446,158.667 34.658,158.667 34.761 C 158.667 34.864,158.817 35.084,159.000 35.250 C 159.183 35.416,159.333 35.627,159.333 35.720 C 159.333 35.812,159.833 36.645,160.443 37.569 C 161.054 38.494,161.733 39.523,161.954 39.857 C 162.346 40.452,162.380 40.466,163.583 40.527 C 165.208 40.609,165.668 40.987,165.664 42.237 C 165.661 43.244,165.560 43.437,164.955 43.589 C 164.703 43.652,164.456 43.770,164.405 43.852 C 164.003 44.503,160.134 43.799,159.500 42.958 C 159.362 42.776,159.137 42.504,159.000 42.354 C 158.862 42.204,158.509 41.707,158.215 41.249 C 157.920 40.791,157.564 40.298,157.423 40.153 C 157.282 40.007,157.167 39.812,157.167 39.719 C 157.167 39.625,156.979 39.346,156.750 39.099 C 156.521 38.852,156.333 38.541,156.333 38.408 C 156.333 38.275,156.262 38.167,156.176 38.167 C 156.089 38.167,155.920 37.987,155.801 37.768 C 155.681 37.549,155.114 36.667,154.541 35.810 C 153.967 34.952,153.405 34.108,153.291 33.935 C 152.769 33.144,151.246 31.369,150.699 30.917 L 150.095 30.417 147.339 30.329 C 145.457 30.269,144.515 30.299,144.369 30.424 C 144.164 30.599,144.015 40.237,144.214 40.436 C 144.254 40.476,145.005 40.525,145.882 40.546 C 147.397 40.581,147.504 40.608,147.989 41.073 C 148.887 41.933,148.650 43.394,147.579 43.595 C 147.259 43.655,146.955 43.771,146.905 43.852 C 146.855 43.934,144.702 44.000,142.121 44.000 C 136.113 44.000,135.674 43.885,135.669 42.301 C 135.665 40.900,136.110 40.589,138.163 40.558 C 139.094 40.544,139.889 40.500,139.929 40.460 C 140.030 40.359,140.028 16.140,139.927 16.039 C 139.883 15.994,139.141 15.971,138.279 15.987 C 136.163 16.026,135.624 15.650,135.701 14.187 C 135.788 12.522,135.823 12.515,144.115 12.507 C 148.007 12.503,151.020 12.565,151.073 12.650 M194.949 12.860 C 196.027 13.472,196.000 13.349,196.000 17.745 C 196.000 22.659,195.941 22.826,194.206 22.831 L 193.329 22.833 192.917 21.958 C 192.545 21.168,192.501 20.843,192.461 18.583 L 192.417 16.083 185.167 16.083 L 177.917 16.083 177.872 20.273 C 177.846 22.758,177.895 24.640,177.993 24.898 L 178.158 25.333 181.296 25.333 C 184.898 25.333,184.833 25.358,184.833 23.961 C 184.833 22.291,185.443 21.333,186.506 21.333 C 187.310 21.333,187.348 21.355,187.606 21.958 C 187.754 22.302,187.940 22.714,188.020 22.873 C 188.217 23.261,188.210 30.620,188.013 30.742 C 187.928 30.794,187.814 31.043,187.758 31.294 C 187.504 32.448,185.634 32.480,185.401 31.333 C 185.354 31.104,185.209 30.692,185.079 30.417 C 184.949 30.142,184.821 29.542,184.796 29.083 L 184.750 28.250 181.521 28.205 C 179.281 28.173,178.223 28.218,178.063 28.350 C 177.786 28.580,177.717 40.241,177.991 40.411 C 178.202 40.541,192.124 40.546,192.335 40.416 C 192.434 40.355,192.500 39.148,192.500 37.407 C 192.500 35.747,192.566 34.500,192.653 34.500 C 192.738 34.500,192.859 34.256,192.923 33.958 C 193.147 32.911,194.614 32.565,195.516 33.347 L 195.917 33.694 195.966 38.066 C 196.041 44.715,197.662 44.000,182.500 44.000 L 170.729 44.000 169.886 43.593 C 168.981 43.157,168.833 42.945,168.833 42.089 C 168.833 41.048,169.731 40.586,171.792 40.569 C 172.732 40.561,173.538 40.518,173.582 40.474 C 173.626 40.429,173.666 34.923,173.669 28.238 L 173.676 16.083 171.765 16.000 C 169.929 15.920,169.834 15.897,169.343 15.427 C 168.341 14.465,168.779 13.119,170.168 12.897 C 170.538 12.838,170.881 12.724,170.930 12.645 C 171.161 12.271,194.276 12.478,194.949 12.860 M144.307 16.016 C 144.098 16.146,144.092 26.492,144.300 26.700 C 144.594 26.994,153.253 26.790,153.608 26.481 C 153.778 26.333,154.174 26.164,154.488 26.105 C 155.089 25.991,155.251 25.871,156.429 24.667 C 156.907 24.178,157.164 23.768,157.165 23.490 C 157.166 23.256,157.277 22.918,157.411 22.740 C 157.753 22.289,157.757 20.282,157.417 20.000 C 157.279 19.886,157.167 19.587,157.167 19.336 C 157.167 18.436,155.474 16.824,154.299 16.603 C 153.964 16.541,153.661 16.398,153.623 16.286 C 153.552 16.072,144.634 15.813,144.307 16.016 M152.915 16.443 C 153.046 16.622,153.445 16.746,154.058 16.797 C 154.740 16.853,155.000 16.942,155.000 17.120 C 155.000 17.254,155.150 17.404,155.333 17.452 C 155.517 17.500,155.667 17.650,155.667 17.785 C 155.667 17.920,155.817 18.070,156.000 18.118 C 156.183 18.166,156.333 18.316,156.333 18.452 C 156.333 18.587,156.474 18.735,156.646 18.780 C 157.256 18.939,157.253 23.798,156.643 23.958 C 156.473 24.002,156.333 24.150,156.333 24.285 C 156.333 24.420,156.183 24.570,156.000 24.618 C 155.817 24.666,155.667 24.804,155.667 24.925 C 155.667 25.046,155.517 25.192,155.333 25.250 C 155.150 25.308,155.000 25.454,155.000 25.573 C 155.000 25.714,154.694 25.820,154.139 25.874 C 153.558 25.930,153.203 26.058,153.049 26.269 C 152.834 26.563,152.564 26.580,148.618 26.539 L 144.417 26.496 144.373 21.331 L 144.329 16.167 148.521 16.167 C 152.230 16.167,152.737 16.198,152.915 16.443 " stroke="none" fill="#ffffff" fill-rule="evenodd"></path><path id="path3" d="M113.500 11.000 C 113.500 11.306,113.389 11.333,112.151 11.333 C 110.955 11.333,110.793 11.370,110.717 11.658 C 110.656 11.891,110.461 11.996,110.025 12.033 C 109.540 12.073,109.406 12.159,109.363 12.458 C 109.318 12.775,109.208 12.833,108.655 12.833 C 108.111 12.833,108.000 12.890,108.000 13.167 C 108.000 13.385,107.889 13.500,107.678 13.500 C 107.501 13.500,107.308 13.650,107.250 13.833 C 107.192 14.017,106.999 14.167,106.822 14.167 C 106.611 14.167,106.500 14.282,106.500 14.500 C 106.500 14.722,106.389 14.833,106.167 14.833 C 105.944 14.833,105.833 14.944,105.833 15.167 C 105.833 15.389,105.722 15.500,105.500 15.500 C 105.278 15.500,105.167 15.611,105.167 15.833 C 105.167 16.056,105.056 16.167,104.833 16.167 C 104.618 16.167,104.500 16.278,104.500 16.481 C 104.500 16.654,104.351 16.833,104.167 16.882 C 103.902 16.951,103.833 17.109,103.833 17.651 C 103.833 18.222,103.779 18.333,103.500 18.333 C 103.222 18.333,103.167 18.444,103.167 19.000 C 103.167 19.556,103.111 19.667,102.833 19.667 C 102.575 19.667,102.500 19.778,102.500 20.160 C 102.500 20.457,102.351 20.793,102.125 21.003 C 101.797 21.308,101.743 21.550,101.692 22.926 C 101.640 24.342,101.603 24.500,101.317 24.500 C 101.015 24.500,101.000 24.675,101.000 28.250 C 101.000 31.825,101.015 32.000,101.317 32.000 C 101.603 32.000,101.640 32.158,101.692 33.574 C 101.743 34.950,101.797 35.192,102.125 35.497 C 102.351 35.707,102.500 36.043,102.500 36.340 C 102.500 36.722,102.575 36.833,102.833 36.833 C 103.111 36.833,103.167 36.944,103.167 37.500 C 103.167 38.056,103.222 38.167,103.500 38.167 C 103.779 38.167,103.833 38.278,103.833 38.849 C 103.833 39.391,103.902 39.549,104.167 39.618 C 104.351 39.667,104.500 39.846,104.500 40.019 C 104.500 40.222,104.618 40.333,104.833 40.333 C 105.056 40.333,105.167 40.444,105.167 40.667 C 105.167 40.889,105.278 41.000,105.500 41.000 C 105.722 41.000,105.833 41.111,105.833 41.333 C 105.833 41.556,105.944 41.667,106.167 41.667 C 106.389 41.667,106.500 41.778,106.500 42.000 C 106.500 42.218,106.611 42.333,106.822 42.333 C 106.999 42.333,107.192 42.483,107.250 42.667 C 107.308 42.850,107.501 43.000,107.678 43.000 C 107.884 43.000,108.000 43.115,108.000 43.319 C 108.000 43.559,108.159 43.664,108.650 43.747 C 109.096 43.823,109.327 43.958,109.385 44.179 C 109.447 44.418,109.616 44.500,110.048 44.500 C 110.488 44.500,110.649 44.581,110.715 44.833 C 110.793 45.132,110.942 45.167,112.151 45.167 C 113.389 45.167,113.500 45.194,113.500 45.500 C 113.500 45.821,113.611 45.833,116.583 45.833 C 119.556 45.833,119.667 45.821,119.667 45.500 C 119.667 45.194,119.778 45.167,121.000 45.167 C 122.222 45.167,122.333 45.139,122.333 44.833 C 122.333 44.554,122.444 44.500,123.016 44.500 C 123.559 44.500,123.716 44.432,123.785 44.165 C 123.847 43.930,124.064 43.800,124.520 43.728 C 125.004 43.650,125.167 43.546,125.167 43.312 C 125.167 43.111,125.285 43.000,125.500 43.000 C 125.722 43.000,125.833 42.889,125.833 42.667 C 125.833 42.444,125.944 42.333,126.167 42.333 C 126.389 42.333,126.500 42.222,126.500 42.000 C 126.500 41.778,126.611 41.667,126.833 41.667 C 127.056 41.667,127.167 41.556,127.167 41.333 C 127.167 41.089,127.278 41.000,127.583 41.000 C 127.889 41.000,128.000 40.911,128.000 40.667 C 128.000 40.473,128.111 40.333,128.266 40.333 C 128.412 40.333,128.569 40.190,128.614 40.015 C 128.660 39.841,128.841 39.660,129.015 39.614 C 129.263 39.550,129.333 39.380,129.333 38.849 C 129.333 38.278,129.388 38.167,129.667 38.167 C 129.944 38.167,130.000 38.056,130.000 37.500 C 130.000 36.944,130.056 36.833,130.333 36.833 C 130.609 36.833,130.667 36.722,130.667 36.186 C 130.667 35.679,130.739 35.520,131.000 35.452 C 131.306 35.372,131.333 35.224,131.333 33.682 C 131.333 32.111,131.355 32.000,131.667 32.000 C 131.990 32.000,132.000 31.889,132.000 28.250 C 132.000 24.611,131.990 24.500,131.667 24.500 C 131.355 24.500,131.333 24.389,131.333 22.818 C 131.333 21.276,131.306 21.128,131.000 21.048 C 130.739 20.980,130.667 20.821,130.667 20.314 C 130.667 19.778,130.609 19.667,130.333 19.667 C 130.056 19.667,130.000 19.556,130.000 19.000 C 130.000 18.444,129.944 18.333,129.667 18.333 C 129.388 18.333,129.333 18.222,129.333 17.651 C 129.333 17.109,129.265 16.951,129.000 16.882 C 128.817 16.834,128.667 16.684,128.667 16.548 C 128.667 16.413,128.517 16.263,128.333 16.215 C 128.149 16.167,128.000 15.988,128.000 15.814 C 128.000 15.590,127.880 15.500,127.583 15.500 C 127.278 15.500,127.167 15.411,127.167 15.167 C 127.167 14.944,127.056 14.833,126.833 14.833 C 126.611 14.833,126.500 14.722,126.500 14.500 C 126.500 14.278,126.389 14.167,126.167 14.167 C 125.944 14.167,125.833 14.056,125.833 13.833 C 125.833 13.611,125.722 13.500,125.500 13.500 C 125.278 13.500,125.167 13.389,125.167 13.167 C 125.167 12.890,125.056 12.833,124.512 12.833 C 123.959 12.833,123.848 12.775,123.803 12.458 C 123.759 12.148,123.630 12.075,123.059 12.033 C 122.539 11.995,122.347 11.902,122.283 11.658 C 122.208 11.372,122.046 11.333,120.932 11.333 C 119.778 11.333,119.667 11.304,119.667 11.000 C 119.667 10.679,119.556 10.667,116.583 10.667 C 113.611 10.667,113.500 10.679,113.500 11.000 M347.333 11.000 C 347.333 11.301,347.222 11.333,346.180 11.333 C 344.890 11.333,344.500 11.432,344.500 11.758 C 344.500 11.894,344.259 12.000,343.875 12.032 C 343.373 12.073,343.240 12.157,343.197 12.458 C 343.152 12.776,343.041 12.833,342.473 12.833 C 341.942 12.833,341.784 12.903,341.715 13.167 C 341.667 13.351,341.488 13.500,341.314 13.500 C 341.111 13.500,341.000 13.618,341.000 13.833 C 341.000 14.105,340.889 14.167,340.401 14.167 C 339.942 14.167,339.782 14.245,339.715 14.500 C 339.667 14.683,339.517 14.833,339.382 14.833 C 339.246 14.833,339.096 14.983,339.048 15.167 C 339.000 15.350,338.850 15.500,338.715 15.500 C 338.580 15.500,338.431 15.643,338.386 15.818 C 338.340 15.993,338.159 16.173,337.985 16.219 C 337.749 16.281,337.667 16.452,337.667 16.883 C 337.667 17.364,337.595 17.482,337.250 17.568 C 336.981 17.636,336.833 17.790,336.833 18.003 C 336.833 18.185,336.729 18.333,336.601 18.333 C 336.335 18.333,336.167 18.687,336.167 19.244 C 336.167 19.488,336.045 19.660,335.833 19.715 C 335.551 19.789,335.500 19.942,335.500 20.715 C 335.500 21.488,335.449 21.641,335.167 21.715 C 334.868 21.793,334.833 21.942,334.833 23.151 C 334.833 24.389,334.806 24.500,334.500 24.500 C 334.177 24.500,334.167 24.611,334.167 28.250 C 334.167 31.889,334.177 32.000,334.500 32.000 C 334.807 32.000,334.833 32.111,334.833 33.417 C 334.833 34.722,334.859 34.833,335.167 34.833 C 335.460 34.833,335.500 34.944,335.500 35.766 C 335.500 36.558,335.550 36.711,335.833 36.785 C 336.086 36.851,336.167 37.012,336.167 37.452 C 336.167 37.885,336.248 38.053,336.491 38.116 C 336.669 38.163,336.838 38.362,336.866 38.559 C 336.898 38.783,337.057 38.937,337.292 38.970 C 337.608 39.015,337.667 39.126,337.667 39.678 C 337.667 40.222,337.723 40.333,338.000 40.333 C 338.222 40.333,338.333 40.444,338.333 40.667 C 338.333 40.889,338.444 41.000,338.667 41.000 C 338.889 41.000,339.000 41.111,339.000 41.333 C 339.000 41.556,339.111 41.667,339.333 41.667 C 339.556 41.667,339.667 41.778,339.667 42.000 C 339.667 42.215,339.778 42.333,339.981 42.333 C 340.154 42.333,340.333 42.482,340.382 42.667 C 340.448 42.922,340.609 43.000,341.068 43.000 C 341.543 43.000,341.667 43.065,341.667 43.314 C 341.667 43.634,342.087 43.827,342.792 43.831 C 343.055 43.833,343.167 43.933,343.167 44.167 C 343.167 44.443,343.278 44.500,343.814 44.500 C 344.321 44.500,344.480 44.572,344.548 44.833 C 344.626 45.130,344.776 45.167,345.917 45.167 C 347.058 45.167,347.207 45.203,347.285 45.500 C 347.369 45.819,347.512 45.833,350.702 45.833 C 353.891 45.833,354.035 45.819,354.118 45.500 C 354.196 45.204,354.346 45.167,355.452 45.167 C 356.558 45.167,356.708 45.129,356.785 44.833 C 356.854 44.570,357.012 44.500,357.535 44.500 C 358.044 44.500,358.217 44.427,358.280 44.186 C 358.336 43.972,358.570 43.838,359.014 43.767 C 359.519 43.686,359.667 43.588,359.667 43.331 C 359.667 43.056,359.779 43.000,360.333 43.000 C 360.889 43.000,361.000 42.944,361.000 42.667 C 361.000 42.444,361.111 42.333,361.333 42.333 C 361.556 42.333,361.667 42.222,361.667 42.000 C 361.667 41.778,361.778 41.667,362.000 41.667 C 362.222 41.667,362.333 41.556,362.333 41.333 C 362.333 41.089,362.444 41.000,362.750 41.000 C 363.047 41.000,363.167 40.910,363.167 40.686 C 363.167 40.512,363.316 40.333,363.500 40.285 C 363.998 40.155,364.012 37.016,363.515 36.886 C 363.341 36.840,363.160 36.659,363.114 36.485 C 363.050 36.237,362.880 36.167,362.349 36.167 C 361.778 36.167,361.667 36.112,361.667 35.833 C 361.667 35.537,361.556 35.500,360.667 35.500 C 359.778 35.500,359.667 35.537,359.667 35.833 C 359.667 36.111,359.556 36.167,359.000 36.167 C 358.444 36.167,358.333 36.222,358.333 36.500 C 358.333 36.722,358.222 36.833,358.000 36.833 C 357.781 36.833,357.667 36.944,357.667 37.157 C 357.667 37.410,357.531 37.491,357.042 37.532 C 356.582 37.570,356.373 37.683,356.252 37.958 C 356.123 38.252,355.951 38.333,355.460 38.333 C 354.944 38.333,354.833 38.392,354.833 38.667 C 354.833 38.963,354.722 39.000,353.833 39.000 C 352.944 39.000,352.833 39.037,352.833 39.333 C 352.833 39.649,352.722 39.667,350.769 39.667 C 348.846 39.667,348.700 39.644,348.618 39.333 C 348.543 39.046,348.391 39.000,347.516 39.000 C 346.611 39.000,346.500 38.964,346.500 38.667 C 346.500 38.444,346.389 38.333,346.167 38.333 C 345.950 38.333,345.833 38.222,345.833 38.015 C 345.833 37.773,345.673 37.669,345.167 37.583 C 344.661 37.498,344.500 37.394,344.500 37.152 C 344.500 36.944,344.384 36.833,344.167 36.833 C 343.944 36.833,343.833 36.722,343.833 36.500 C 343.833 36.281,343.722 36.167,343.510 36.167 C 343.257 36.167,343.176 36.031,343.135 35.542 C 343.094 35.040,343.010 34.906,342.708 34.863 C 342.392 34.818,342.333 34.708,342.333 34.155 C 342.333 33.611,342.277 33.500,342.000 33.500 C 341.701 33.500,341.667 33.389,341.667 32.417 C 341.667 31.444,341.632 31.333,341.333 31.333 C 341.011 31.333,341.000 31.222,341.000 27.917 C 341.000 24.611,341.011 24.500,341.333 24.500 C 341.632 24.500,341.667 24.389,341.667 23.417 C 341.667 22.444,341.701 22.333,342.000 22.333 C 342.278 22.333,342.333 22.222,342.333 21.667 C 342.333 21.101,342.386 21.000,342.682 21.000 C 342.891 21.000,343.066 20.866,343.118 20.667 C 343.166 20.483,343.301 20.333,343.418 20.333 C 343.666 20.333,343.833 19.967,343.833 19.424 C 343.833 19.108,343.947 19.024,344.500 18.936 C 345.018 18.853,345.167 18.756,345.167 18.498 C 345.167 18.278,345.278 18.167,345.500 18.167 C 345.722 18.167,345.833 18.056,345.833 17.833 C 345.833 17.556,345.944 17.500,346.500 17.500 C 347.056 17.500,347.167 17.444,347.167 17.167 C 347.167 16.870,347.278 16.833,348.182 16.833 C 349.058 16.833,349.210 16.787,349.285 16.500 C 349.363 16.203,349.512 16.167,350.675 16.167 C 351.831 16.167,351.989 16.204,352.083 16.500 C 352.173 16.784,352.336 16.833,353.178 16.833 C 354.056 16.833,354.167 16.871,354.167 17.167 C 354.167 17.389,354.278 17.500,354.500 17.500 C 354.718 17.500,354.833 17.611,354.833 17.822 C 354.833 17.999,354.975 18.189,355.149 18.244 C 355.322 18.299,355.503 18.492,355.550 18.672 C 355.597 18.852,355.755 19.000,355.901 19.000 C 356.095 19.000,356.167 19.162,356.167 19.599 C 356.167 20.054,356.245 20.218,356.493 20.283 C 356.776 20.357,356.826 20.540,356.868 21.643 C 356.913 22.820,356.945 22.921,357.292 22.970 C 357.563 23.008,357.667 23.135,357.667 23.428 C 357.667 23.722,357.758 23.833,358.000 23.833 C 358.222 23.833,358.333 23.944,358.333 24.167 C 358.333 24.481,358.444 24.500,360.266 24.500 C 362.058 24.500,362.204 24.476,362.285 24.167 C 362.333 23.983,362.473 23.833,362.597 23.833 C 363.101 23.833,363.167 23.149,363.167 17.917 C 363.167 12.641,363.103 12.000,362.577 12.000 C 362.443 12.000,362.333 11.850,362.333 11.667 C 362.333 11.351,362.222 11.333,360.264 11.333 C 358.060 11.333,357.667 11.399,357.667 11.768 C 357.667 11.904,357.495 12.000,357.250 12.000 C 357.005 12.000,356.833 11.904,356.833 11.768 C 356.833 11.439,356.456 11.333,355.276 11.333 C 354.427 11.333,354.210 11.275,354.039 11.000 C 353.842 10.685,353.650 10.667,350.582 10.667 C 347.444 10.667,347.333 10.678,347.333 11.000 M11.385 11.655 C 11.327 11.875,11.096 12.011,10.650 12.086 L 10.000 12.196 10.000 14.181 C 10.000 16.056,10.019 16.167,10.333 16.167 C 10.556 16.167,10.667 16.278,10.667 16.500 C 10.667 16.826,10.778 16.833,15.500 16.833 L 20.333 16.833 20.333 26.500 C 20.333 36.056,20.330 36.167,20.000 36.167 C 19.716 36.167,19.667 36.278,19.667 36.917 C 19.667 37.556,19.617 37.667,19.333 37.667 C 19.056 37.667,19.000 37.778,19.000 38.333 C 19.000 38.889,18.944 39.000,18.667 39.000 C 18.444 39.000,18.333 39.111,18.333 39.333 C 18.333 39.612,18.222 39.667,17.651 39.667 C 17.109 39.667,16.951 39.735,16.882 40.000 C 16.746 40.518,12.000 40.518,12.000 40.000 C 12.000 39.778,11.889 39.667,11.667 39.667 C 11.444 39.667,11.333 39.556,11.333 39.333 C 11.333 39.056,11.222 39.000,10.667 39.000 L 10.000 39.000 10.000 38.333 C 10.000 37.778,9.944 37.667,9.667 37.667 C 9.409 37.667,9.333 37.556,9.333 37.180 C 9.333 36.526,9.179 36.167,8.899 36.167 C 8.710 36.167,8.667 35.666,8.667 33.484 C 8.667 30.986,8.645 30.796,8.349 30.719 C 8.174 30.673,7.993 30.493,7.948 30.318 C 7.883 30.070,7.713 30.000,7.182 30.000 C 6.611 30.000,6.500 29.946,6.500 29.667 C 6.500 29.370,6.389 29.333,5.500 29.333 C 4.611 29.333,4.500 29.370,4.500 29.667 C 4.500 29.944,4.389 30.000,3.833 30.000 L 3.167 30.000 3.167 36.167 C 3.167 42.222,3.173 42.333,3.500 42.333 C 3.722 42.333,3.833 42.444,3.833 42.667 C 3.833 42.889,3.944 43.000,4.167 43.000 C 4.381 43.000,4.500 43.111,4.500 43.312 C 4.500 43.537,4.657 43.649,5.071 43.716 C 5.385 43.767,5.797 43.964,5.987 44.154 C 6.245 44.412,6.546 44.500,7.167 44.500 C 7.889 44.500,8.000 44.544,8.000 44.833 C 8.000 45.138,8.111 45.167,9.314 45.167 C 10.488 45.167,10.637 45.202,10.715 45.500 C 10.851 46.021,18.751 46.021,18.917 45.500 C 19.007 45.216,19.169 45.167,20.011 45.167 C 20.889 45.167,21.000 45.129,21.000 44.833 C 21.000 44.556,21.111 44.500,21.667 44.500 C 22.214 44.500,22.333 44.443,22.333 44.178 C 22.333 43.971,22.467 43.837,22.708 43.803 C 22.946 43.770,23.102 43.616,23.135 43.384 C 23.177 43.095,23.316 43.008,23.802 42.968 C 24.381 42.920,24.420 42.881,24.468 42.292 C 24.509 41.802,24.590 41.667,24.843 41.667 C 25.109 41.667,25.167 41.549,25.167 41.000 C 25.167 40.444,25.222 40.333,25.500 40.333 C 25.799 40.333,25.833 40.222,25.833 39.250 C 25.833 38.278,25.868 38.167,26.167 38.167 C 26.497 38.167,26.500 38.056,26.500 27.500 L 26.500 16.833 29.572 16.833 C 32.439 16.833,32.651 16.812,32.744 16.518 C 32.799 16.345,32.992 16.164,33.172 16.117 C 33.671 15.987,33.677 12.833,33.178 12.833 C 32.971 12.833,32.837 12.699,32.803 12.458 C 32.769 12.217,32.616 12.064,32.375 12.030 C 32.134 11.996,32.000 11.862,32.000 11.655 C 32.000 11.150,11.517 11.150,11.385 11.655 M35.634 11.636 C 35.515 11.802,35.285 11.988,35.125 12.047 C 34.965 12.107,34.833 12.309,34.833 12.495 C 34.833 12.722,34.724 12.833,34.500 12.833 C 34.194 12.833,34.167 12.944,34.167 14.167 C 34.167 15.389,34.194 15.500,34.500 15.500 C 34.778 15.500,34.833 15.611,34.833 16.167 L 34.833 16.833 36.250 16.833 L 37.667 16.833 37.667 26.500 C 37.667 36.056,37.670 36.167,38.000 36.167 C 38.305 36.167,38.333 36.278,38.333 37.489 C 38.333 38.664,38.370 38.823,38.667 38.917 C 38.917 38.996,39.000 39.169,39.000 39.610 C 39.000 40.058,39.079 40.219,39.333 40.285 C 39.518 40.333,39.667 40.512,39.667 40.686 C 39.667 40.889,39.785 41.000,40.000 41.000 C 40.271 41.000,40.333 41.111,40.333 41.599 C 40.333 42.054,40.412 42.218,40.661 42.284 C 40.841 42.331,41.034 42.511,41.089 42.685 C 41.161 42.913,41.346 43.000,41.758 43.000 C 42.226 43.000,42.346 43.074,42.432 43.417 C 42.497 43.677,42.654 43.833,42.851 43.833 C 43.056 43.833,43.167 43.951,43.167 44.167 C 43.167 44.443,43.278 44.500,43.814 44.500 C 44.321 44.500,44.480 44.572,44.548 44.833 C 44.626 45.130,44.776 45.167,45.917 45.167 C 47.058 45.167,47.207 45.203,47.285 45.500 C 47.369 45.819,47.512 45.833,50.675 45.833 C 53.831 45.833,53.982 45.819,54.083 45.500 C 54.173 45.216,54.336 45.167,55.178 45.167 C 56.056 45.167,56.167 45.129,56.167 44.833 C 56.167 44.550,56.278 44.500,56.903 44.500 C 57.795 44.500,58.167 44.373,58.167 44.069 C 58.167 43.943,58.354 43.793,58.583 43.735 C 58.844 43.670,59.000 43.513,59.000 43.315 C 59.000 43.111,59.117 43.000,59.333 43.000 C 59.556 43.000,59.667 42.889,59.667 42.667 C 59.667 42.444,59.778 42.333,60.000 42.333 C 60.222 42.333,60.333 42.222,60.333 42.000 C 60.333 41.778,60.444 41.667,60.667 41.667 C 60.944 41.667,61.000 41.556,61.000 41.000 C 61.000 40.444,61.056 40.333,61.333 40.333 C 61.609 40.333,61.667 40.222,61.667 39.686 C 61.667 39.179,61.739 39.020,62.000 38.952 C 62.299 38.874,62.333 38.724,62.333 37.516 C 62.333 36.306,62.366 36.167,62.647 36.167 C 63.148 36.167,63.162 35.903,63.164 26.132 L 63.167 16.847 64.458 16.799 L 65.750 16.750 65.796 14.444 C 65.840 12.283,65.823 12.133,65.520 12.054 C 65.343 12.007,65.160 11.826,65.114 11.651 C 64.986 11.159,53.500 11.154,53.500 11.645 C 53.500 11.879,53.337 11.983,52.854 12.061 C 52.116 12.179,52.000 12.466,52.000 14.167 C 52.000 15.589,52.150 16.167,52.521 16.167 C 52.722 16.167,52.833 16.285,52.833 16.500 C 52.833 16.815,52.944 16.833,54.833 16.833 L 56.833 16.833 56.833 26.147 C 56.833 35.321,56.828 35.462,56.500 35.548 C 56.250 35.614,56.167 35.776,56.167 36.194 C 56.167 36.573,56.059 36.820,55.833 36.961 C 55.603 37.105,55.500 37.350,55.500 37.751 C 55.500 38.222,55.436 38.333,55.167 38.333 C 54.944 38.333,54.833 38.444,54.833 38.667 C 54.833 38.944,54.722 39.000,54.167 39.000 C 53.611 39.000,53.500 39.056,53.500 39.333 C 53.500 39.632,53.389 39.667,52.417 39.667 C 51.444 39.667,51.333 39.701,51.333 40.000 C 51.333 40.278,51.222 40.333,50.667 40.333 C 50.111 40.333,50.000 40.278,50.000 40.000 C 50.000 39.703,49.889 39.667,48.984 39.667 C 48.109 39.667,47.957 39.621,47.882 39.333 C 47.813 39.072,47.654 39.000,47.147 39.000 C 46.611 39.000,46.500 38.943,46.500 38.667 C 46.500 38.444,46.389 38.333,46.167 38.333 C 45.939 38.333,45.833 38.222,45.833 37.984 C 45.833 37.776,45.699 37.600,45.500 37.548 C 45.247 37.482,45.167 37.321,45.167 36.882 C 45.167 36.442,45.086 36.281,44.833 36.215 C 44.548 36.140,44.500 35.988,44.500 35.147 C 44.500 34.278,44.462 34.167,44.167 34.167 C 43.838 34.167,43.833 34.056,43.833 25.500 L 43.833 16.833 45.822 16.833 C 47.664 16.833,47.819 16.809,47.917 16.500 C 47.975 16.317,48.122 16.167,48.243 16.167 C 48.580 16.167,48.667 15.770,48.667 14.236 C 48.667 12.961,48.637 12.833,48.345 12.833 C 48.138 12.833,48.004 12.699,47.970 12.458 C 47.937 12.224,47.783 12.064,47.559 12.032 C 47.362 12.004,47.163 11.835,47.116 11.657 C 46.988 11.170,35.984 11.150,35.634 11.636 M70.052 11.651 C 70.007 11.826,69.826 12.007,69.651 12.052 C 69.466 12.101,69.333 12.281,69.333 12.484 C 69.333 12.722,69.227 12.833,69.000 12.833 C 68.694 12.833,68.667 12.944,68.667 14.167 C 68.667 15.389,68.694 15.500,69.000 15.500 C 69.278 15.500,69.333 15.611,69.333 16.167 L 69.333 16.833 70.667 16.833 L 72.000 16.833 72.000 28.243 L 72.000 39.653 70.708 39.701 L 69.417 39.750 69.365 40.375 C 69.324 40.865,69.243 41.000,68.990 41.000 C 68.697 41.000,68.667 41.125,68.667 42.333 C 68.667 43.556,68.694 43.667,69.000 43.667 C 69.244 43.667,69.333 43.778,69.333 44.083 C 69.333 44.380,69.424 44.500,69.647 44.500 C 69.821 44.500,70.000 44.649,70.048 44.833 C 70.134 45.161,70.276 45.167,77.721 45.167 C 85.418 45.167,85.833 45.144,85.833 44.732 C 85.833 44.553,86.140 44.500,87.182 44.500 C 88.362 44.500,88.541 44.461,88.613 44.187 C 88.677 43.942,88.912 43.849,89.681 43.762 C 90.509 43.668,90.667 43.598,90.667 43.325 C 90.667 43.057,90.783 43.000,91.333 43.000 C 91.889 43.000,92.000 42.944,92.000 42.667 C 92.000 42.448,92.111 42.333,92.322 42.333 C 92.499 42.333,92.692 42.183,92.750 42.000 C 92.808 41.817,93.001 41.667,93.178 41.667 C 93.389 41.667,93.500 41.552,93.500 41.333 C 93.500 41.111,93.611 41.000,93.833 41.000 C 94.056 41.000,94.167 40.889,94.167 40.667 C 94.167 40.444,94.278 40.333,94.500 40.333 C 94.715 40.333,94.833 40.222,94.833 40.019 C 94.833 39.846,94.982 39.667,95.167 39.618 C 95.432 39.549,95.500 39.391,95.500 38.849 C 95.500 38.278,95.554 38.167,95.833 38.167 C 96.056 38.167,96.167 38.056,96.167 37.833 C 96.167 37.611,96.278 37.500,96.500 37.500 C 96.778 37.500,96.833 37.389,96.833 36.833 C 96.833 36.278,96.889 36.167,97.167 36.167 C 97.431 36.167,97.500 36.055,97.501 35.625 C 97.505 34.220,97.707 33.333,98.023 33.333 C 98.513 33.333,98.505 22.577,98.016 22.422 C 97.769 22.343,97.672 22.097,97.583 21.327 C 97.487 20.502,97.413 20.333,97.150 20.333 C 96.892 20.333,96.833 20.211,96.833 19.667 C 96.833 19.111,96.778 19.000,96.500 19.000 C 96.223 19.000,96.167 18.889,96.167 18.345 C 96.167 17.836,96.092 17.666,95.833 17.583 C 95.650 17.525,95.500 17.333,95.500 17.155 C 95.500 16.944,95.385 16.833,95.167 16.833 C 94.895 16.833,94.833 16.722,94.833 16.234 C 94.833 15.779,94.755 15.615,94.506 15.550 C 94.325 15.503,94.133 15.322,94.078 15.149 C 94.006 14.922,93.820 14.833,93.417 14.833 C 93.002 14.833,92.828 14.746,92.750 14.500 C 92.692 14.317,92.499 14.167,92.322 14.167 C 92.111 14.167,92.000 14.052,92.000 13.833 C 92.000 13.556,91.889 13.500,91.333 13.500 C 90.778 13.500,90.667 13.444,90.667 13.167 C 90.667 12.889,90.556 12.833,90.000 12.833 C 89.457 12.833,89.333 12.775,89.333 12.518 C 89.333 12.097,89.022 12.000,87.672 12.000 C 86.679 12.000,86.528 11.959,86.452 11.667 C 86.318 11.156,70.186 11.140,70.052 11.651 M135.563 11.575 C 135.512 11.708,135.512 11.885,135.564 11.968 C 135.615 12.051,135.471 12.083,135.245 12.040 C 134.892 11.972,134.833 12.023,134.833 12.397 C 134.833 12.722,134.748 12.833,134.500 12.833 C 134.194 12.833,134.167 12.944,134.167 14.167 C 134.167 15.478,134.174 15.500,134.583 15.500 C 134.972 15.500,135.000 15.444,135.000 14.675 C 135.000 14.146,135.083 13.802,135.231 13.717 C 135.359 13.643,135.491 13.433,135.525 13.250 C 135.560 13.063,135.743 12.894,135.943 12.866 C 136.139 12.838,136.339 12.664,136.387 12.479 C 136.515 11.990,152.912 12.051,153.187 12.542 C 153.323 12.785,153.594 12.833,154.836 12.833 C 156.151 12.833,156.342 12.872,156.500 13.167 C 156.626 13.402,156.849 13.500,157.261 13.500 C 157.638 13.500,157.879 13.593,157.945 13.763 C 158.000 13.907,158.223 14.093,158.439 14.175 C 158.656 14.258,158.833 14.439,158.833 14.579 C 158.833 14.719,158.897 14.833,158.975 14.833 C 159.166 14.833,160.167 15.798,160.167 15.982 C 160.167 16.063,160.354 16.251,160.583 16.401 C 160.867 16.587,161.000 16.826,161.000 17.151 C 161.000 17.488,161.098 17.653,161.333 17.715 C 161.611 17.788,161.667 17.942,161.667 18.643 C 161.667 19.268,161.741 19.525,161.957 19.646 C 162.507 19.954,162.468 23.333,161.913 23.333 C 161.732 23.333,161.667 23.532,161.667 24.082 C 161.667 24.650,161.586 24.881,161.333 25.039 C 161.130 25.166,161.000 25.427,161.000 25.711 C 161.000 26.052,160.890 26.217,160.583 26.333 C 160.354 26.420,160.167 26.574,160.167 26.675 C 160.167 26.901,159.253 27.833,159.032 27.833 C 158.944 27.833,158.833 27.983,158.785 28.167 C 158.722 28.408,158.558 28.500,158.188 28.500 C 157.849 28.500,157.619 28.612,157.500 28.833 C 157.375 29.067,157.151 29.167,156.750 29.167 C 156.356 29.167,156.125 29.267,156.006 29.488 C 155.912 29.665,155.665 29.839,155.459 29.875 C 155.091 29.939,155.092 29.944,155.519 30.124 C 155.759 30.225,156.000 30.426,156.055 30.571 C 156.111 30.715,156.263 30.833,156.393 30.833 C 156.524 30.833,156.681 31.036,156.744 31.284 C 156.806 31.532,157.002 31.836,157.178 31.960 C 157.355 32.084,157.500 32.323,157.500 32.490 C 157.500 32.657,157.650 32.834,157.833 32.882 C 158.020 32.930,158.167 33.109,158.167 33.286 C 158.167 33.461,158.317 33.765,158.500 33.962 C 158.683 34.158,158.833 34.442,158.833 34.592 C 158.833 34.742,158.975 34.902,159.149 34.947 C 159.332 34.995,159.505 35.232,159.560 35.510 C 159.613 35.774,159.790 36.134,159.953 36.311 C 160.739 37.161,161.000 37.559,161.000 37.911 C 161.000 38.154,161.122 38.326,161.333 38.382 C 161.517 38.430,161.667 38.588,161.667 38.734 C 161.667 38.880,161.817 39.150,162.000 39.333 C 162.183 39.517,162.333 39.817,162.333 40.000 C 162.333 40.303,162.444 40.333,163.572 40.333 C 164.955 40.333,165.667 40.531,165.667 40.914 C 165.667 41.055,165.817 41.298,166.000 41.455 C 166.397 41.796,166.457 42.667,166.083 42.667 C 165.927 42.667,165.833 42.825,165.833 43.089 C 165.833 43.338,165.714 43.555,165.542 43.619 C 165.381 43.679,165.152 43.864,165.032 44.031 C 164.687 44.511,160.764 44.484,160.461 44.000 C 160.334 43.796,160.073 43.667,159.789 43.667 C 159.440 43.667,159.283 43.557,159.156 43.222 C 159.063 42.978,158.840 42.650,158.660 42.494 C 158.480 42.339,158.333 42.081,158.333 41.923 C 158.333 41.765,158.183 41.596,158.000 41.548 C 157.784 41.492,157.667 41.321,157.667 41.064 C 157.667 40.835,157.568 40.667,157.434 40.667 C 157.180 40.667,157.000 40.316,157.000 39.820 C 157.000 39.611,156.884 39.500,156.667 39.500 C 156.446 39.500,156.333 39.389,156.333 39.173 C 156.333 38.992,156.183 38.765,156.000 38.667 C 155.817 38.569,155.667 38.340,155.667 38.159 C 155.667 37.978,155.517 37.702,155.333 37.545 C 155.150 37.388,155.000 37.166,155.000 37.052 C 155.000 36.938,154.853 36.767,154.674 36.671 C 154.494 36.574,154.300 36.241,154.242 35.930 C 154.174 35.570,154.020 35.334,153.818 35.281 C 153.633 35.233,153.500 35.052,153.500 34.849 C 153.500 34.657,153.396 34.500,153.268 34.500 C 153.013 34.500,152.833 34.150,152.833 33.653 C 152.833 33.472,152.718 33.333,152.568 33.333 C 152.422 33.333,152.264 33.186,152.216 33.006 C 152.169 32.825,151.997 32.635,151.833 32.583 C 151.670 32.531,151.497 32.341,151.450 32.161 C 151.403 31.981,151.245 31.833,151.099 31.833 C 150.953 31.833,150.833 31.726,150.833 31.595 C 150.833 31.463,150.683 31.308,150.500 31.250 C 150.317 31.192,150.167 31.043,150.167 30.920 C 150.167 30.643,148.096 30.453,145.917 30.530 L 144.417 30.583 144.372 35.458 L 144.328 40.333 145.956 40.336 C 147.906 40.338,148.287 40.424,148.434 40.893 C 148.496 41.089,148.686 41.429,148.856 41.647 C 149.226 42.120,149.247 42.396,148.939 42.704 C 148.813 42.830,148.658 43.097,148.594 43.299 C 148.528 43.507,148.341 43.667,148.164 43.667 C 147.991 43.667,147.777 43.798,147.687 43.958 C 147.445 44.390,136.555 44.505,136.391 44.077 C 136.334 43.929,136.111 43.740,135.894 43.658 C 135.669 43.572,135.500 43.371,135.500 43.189 C 135.500 43.013,135.387 42.826,135.250 42.773 C 134.899 42.638,134.939 42.047,135.333 41.545 C 135.517 41.312,135.667 40.990,135.667 40.829 C 135.667 40.403,135.991 40.333,137.972 40.333 L 139.750 40.333 139.750 28.250 L 139.750 16.167 137.969 16.167 C 136.990 16.167,135.997 16.094,135.762 16.005 C 135.184 15.785,134.833 15.952,134.833 16.446 C 134.833 16.770,134.913 16.851,135.208 16.827 C 135.415 16.810,136.352 16.805,137.292 16.815 L 139.000 16.833 139.000 28.250 L 139.000 39.667 136.917 39.667 C 134.987 39.667,134.833 39.690,134.833 39.981 C 134.833 40.154,134.684 40.333,134.500 40.382 C 133.929 40.531,134.000 43.537,134.580 43.802 C 134.838 43.919,134.958 44.081,134.901 44.232 C 134.833 44.407,134.917 44.461,135.206 44.430 C 135.515 44.396,135.602 44.464,135.594 44.735 C 135.583 45.083,135.596 45.083,142.083 45.083 C 148.571 45.083,148.583 45.083,148.573 44.735 C 148.565 44.467,148.652 44.396,148.948 44.428 C 149.237 44.460,149.333 44.387,149.333 44.136 C 149.333 43.942,149.473 43.766,149.667 43.715 C 150.168 43.584,150.178 41.000,149.677 41.000 C 149.423 41.000,149.342 40.865,149.302 40.375 L 149.250 39.750 147.208 39.703 L 145.167 39.656 145.167 35.495 L 145.167 31.333 147.250 31.333 C 149.222 31.333,149.333 31.351,149.333 31.667 C 149.333 31.889,149.444 32.000,149.667 32.000 C 149.861 32.000,150.000 32.111,150.000 32.266 C 150.000 32.412,150.150 32.570,150.333 32.618 C 150.518 32.667,150.667 32.846,150.667 33.019 C 150.667 33.222,150.785 33.333,151.000 33.333 C 151.227 33.333,151.333 33.444,151.333 33.682 C 151.333 33.890,151.467 34.066,151.663 34.117 C 151.880 34.174,152.029 34.402,152.102 34.790 C 152.172 35.163,152.325 35.406,152.523 35.458 C 152.693 35.502,152.833 35.680,152.833 35.853 C 152.833 36.056,152.951 36.167,153.167 36.167 C 153.444 36.167,153.500 36.278,153.500 36.833 C 153.500 37.389,153.556 37.500,153.833 37.500 C 154.056 37.500,154.167 37.611,154.167 37.833 C 154.167 38.056,154.278 38.167,154.500 38.167 C 154.777 38.167,154.833 38.278,154.833 38.822 C 154.833 39.319,154.910 39.502,155.149 39.578 C 155.322 39.633,155.503 39.825,155.550 40.006 C 155.597 40.186,155.755 40.333,155.901 40.333 C 156.071 40.333,156.167 40.479,156.167 40.736 C 156.167 41.299,156.331 41.667,156.582 41.667 C 156.699 41.667,156.834 41.817,156.882 42.000 C 156.934 42.199,157.109 42.333,157.318 42.333 C 157.556 42.333,157.667 42.439,157.667 42.667 C 157.667 42.889,157.778 43.000,158.000 43.000 C 158.278 43.000,158.333 43.111,158.333 43.667 C 158.333 44.181,158.400 44.339,158.625 44.359 C 158.785 44.373,158.992 44.402,159.083 44.423 C 159.175 44.444,159.344 44.470,159.458 44.481 C 159.573 44.491,159.667 44.650,159.667 44.833 C 159.667 45.155,159.778 45.167,162.750 45.167 C 165.722 45.167,165.833 45.155,165.833 44.833 C 165.833 44.611,165.944 44.500,166.167 44.500 C 166.385 44.500,166.500 44.389,166.500 44.178 C 166.500 44.001,166.650 43.808,166.833 43.750 C 167.137 43.654,167.167 43.498,167.167 41.989 C 167.167 40.444,167.144 40.333,166.833 40.333 C 166.611 40.333,166.500 40.222,166.500 40.000 C 166.500 39.689,166.389 39.667,164.848 39.667 L 163.196 39.667 163.083 39.000 C 162.998 38.494,162.894 38.333,162.652 38.333 C 162.423 38.333,162.333 38.216,162.333 37.917 C 162.333 37.611,162.244 37.500,162.000 37.500 C 161.722 37.500,161.667 37.389,161.667 36.833 C 161.667 36.278,161.611 36.167,161.333 36.167 C 161.111 36.167,161.000 36.056,161.000 35.833 C 161.000 35.611,160.889 35.500,160.667 35.500 C 160.389 35.500,160.333 35.389,160.333 34.833 C 160.333 34.278,160.278 34.167,160.000 34.167 C 159.778 34.167,159.667 34.056,159.667 33.833 C 159.667 33.614,159.556 33.500,159.343 33.500 C 159.081 33.500,159.009 33.364,158.968 32.792 C 158.924 32.181,158.865 32.085,158.546 32.096 C 158.232 32.107,158.191 32.045,158.279 31.695 C 158.368 31.339,158.335 31.294,158.039 31.371 C 157.787 31.437,157.670 31.367,157.600 31.106 C 157.402 30.368,157.485 30.000,157.849 30.000 C 158.058 30.000,158.233 29.866,158.285 29.667 C 158.351 29.414,158.512 29.333,158.952 29.333 C 159.382 29.333,159.553 29.251,159.614 29.015 C 159.660 28.841,159.841 28.660,160.015 28.614 C 160.200 28.566,160.333 28.385,160.333 28.182 C 160.333 27.944,160.439 27.833,160.667 27.833 C 160.889 27.833,161.000 27.722,161.000 27.500 C 161.000 27.278,161.111 27.167,161.333 27.167 C 161.611 27.167,161.667 27.056,161.667 26.500 C 161.667 25.944,161.722 25.833,162.000 25.833 C 162.278 25.833,162.333 25.722,162.333 25.167 C 162.333 24.616,162.390 24.500,162.659 24.500 C 163.353 24.500,163.401 19.128,162.708 19.030 C 162.364 18.981,162.333 18.890,162.333 17.905 C 162.333 16.944,162.299 16.833,162.000 16.833 C 161.722 16.833,161.667 16.722,161.667 16.167 C 161.667 15.611,161.611 15.500,161.333 15.500 C 161.111 15.500,161.000 15.389,161.000 15.167 C 161.000 14.944,160.889 14.833,160.667 14.833 C 160.444 14.833,160.333 14.722,160.333 14.500 C 160.333 14.278,160.222 14.167,160.000 14.167 C 159.778 14.167,159.667 14.056,159.667 13.833 C 159.667 13.618,159.556 13.500,159.353 13.500 C 159.179 13.500,159.000 13.351,158.952 13.167 C 158.882 12.902,158.724 12.833,158.182 12.833 C 157.616 12.833,157.500 12.778,157.500 12.508 C 157.500 12.138,156.849 11.953,155.744 12.011 C 154.497 12.076,154.209 12.015,154.118 11.667 C 154.002 11.221,135.734 11.131,135.563 11.575 M169.333 11.657 C 169.333 11.910,169.198 11.991,168.708 12.032 L 168.083 12.083 168.037 14.458 L 167.991 16.833 170.412 16.833 L 172.833 16.833 172.833 28.250 L 172.833 39.667 170.750 39.667 C 168.778 39.667,168.667 39.684,168.667 40.000 C 168.667 40.293,168.503 40.405,168.143 40.359 C 168.084 40.351,168.024 41.280,168.010 42.423 C 167.987 44.372,168.005 44.500,168.306 44.500 C 168.488 44.500,168.666 44.645,168.715 44.833 C 168.801 45.163,168.942 45.167,182.417 45.167 C 195.891 45.167,196.032 45.163,196.118 44.833 C 196.167 44.647,196.346 44.500,196.523 44.500 C 196.932 44.500,197.009 32.270,196.600 32.113 C 195.852 31.826,192.188 32.002,192.084 32.330 C 192.025 32.516,191.833 32.745,191.655 32.839 C 191.354 33.001,191.333 33.221,191.333 36.339 L 191.333 39.667 185.167 39.667 L 179.000 39.667 179.000 34.500 L 179.000 29.333 181.417 29.333 L 183.833 29.333 183.833 30.667 C 183.833 31.889,183.861 32.000,184.167 32.000 C 184.443 32.000,184.500 32.111,184.500 32.645 L 184.500 33.290 185.500 33.403 C 186.704 33.540,188.489 33.363,188.529 33.103 C 188.544 33.001,188.563 32.729,188.570 32.500 C 188.580 32.200,188.688 32.068,188.958 32.030 L 189.333 31.977 189.333 26.665 C 189.333 21.723,189.312 21.337,189.031 21.134 C 188.864 21.015,188.679 20.785,188.619 20.625 C 188.447 20.163,184.500 20.184,184.500 20.647 C 184.500 20.821,184.351 21.000,184.167 21.048 C 183.868 21.126,183.833 21.276,183.833 22.484 L 183.833 23.833 181.417 23.833 L 179.000 23.833 179.000 20.333 L 179.000 16.833 185.167 16.833 L 191.333 16.833 191.333 19.849 C 191.333 22.680,191.353 22.870,191.653 22.948 C 191.828 22.994,192.018 23.215,192.074 23.440 C 192.177 23.850,194.804 24.016,196.392 23.712 L 196.833 23.628 196.833 17.882 C 196.833 12.276,196.825 12.133,196.500 12.048 C 196.317 12.000,196.167 11.865,196.167 11.748 C 196.167 11.350,195.630 11.333,182.486 11.333 C 169.581 11.333,169.333 11.339,169.333 11.657 M201.756 11.649 C 201.701 11.822,201.508 12.003,201.328 12.050 C 201.134 12.101,201.000 12.278,201.000 12.484 C 201.000 12.722,200.894 12.833,200.667 12.833 C 200.361 12.833,200.333 12.944,200.333 14.167 C 200.333 15.389,200.361 15.500,200.667 15.500 C 200.944 15.500,201.000 15.611,201.000 16.167 L 201.000 16.833 204.083 16.833 L 207.167 16.833 207.167 28.250 L 207.167 39.667 204.184 39.667 C 200.959 39.667,201.000 39.655,201.000 40.597 C 201.000 40.889,200.908 41.000,200.667 41.000 C 200.363 41.000,200.333 41.111,200.333 42.266 C 200.333 43.391,200.370 43.541,200.667 43.618 C 200.858 43.668,201.000 43.846,201.000 44.035 C 201.000 44.219,201.140 44.401,201.318 44.448 C 201.493 44.493,201.673 44.674,201.719 44.849 C 201.800 45.158,202.171 45.167,215.971 45.167 C 230.121 45.167,230.667 45.151,230.667 44.752 C 230.667 44.635,230.817 44.500,231.000 44.452 C 231.327 44.366,231.333 44.224,231.333 37.182 C 231.333 30.111,231.328 30.000,231.000 30.000 C 230.776 30.000,230.667 29.889,230.667 29.662 C 230.667 29.337,230.581 29.325,228.625 29.370 L 226.583 29.417 226.533 30.025 C 226.496 30.461,226.391 30.656,226.158 30.717 C 225.847 30.799,225.833 30.983,225.833 35.234 L 225.833 39.667 219.667 39.667 L 213.500 39.667 213.500 28.250 L 213.500 16.833 217.250 16.833 L 221.000 16.833 221.000 14.484 C 221.000 12.276,220.980 12.130,220.667 12.048 C 220.483 12.000,220.333 11.865,220.333 11.748 C 220.333 11.355,219.834 11.333,210.831 11.333 C 202.173 11.333,201.852 11.344,201.756 11.649 M239.000 11.667 C 239.000 11.889,238.889 12.000,238.667 12.000 C 238.422 12.000,238.333 12.111,238.333 12.417 C 238.333 12.722,238.244 12.833,238.000 12.833 C 237.689 12.833,237.667 12.944,237.667 14.500 C 237.667 16.056,237.689 16.167,238.000 16.167 C 238.222 16.167,238.333 16.278,238.333 16.500 C 238.333 16.820,238.444 16.833,241.083 16.833 L 243.833 16.833 243.833 17.583 C 243.833 18.222,243.784 18.333,243.500 18.333 C 243.204 18.333,243.167 18.444,243.167 19.333 C 243.167 20.222,243.130 20.333,242.833 20.333 C 242.574 20.333,242.500 20.444,242.500 20.833 C 242.500 21.125,242.348 21.485,242.136 21.697 C 241.883 21.950,241.750 22.327,241.700 22.933 C 241.644 23.610,241.558 23.823,241.314 23.887 C 241.054 23.955,241.000 24.128,241.000 24.901 C 241.000 25.722,240.960 25.833,240.667 25.833 C 240.388 25.833,240.333 25.944,240.333 26.516 C 240.333 27.058,240.265 27.216,240.000 27.285 C 239.714 27.360,239.667 27.512,239.667 28.353 C 239.667 29.222,239.629 29.333,239.333 29.333 C 239.037 29.333,239.000 29.444,239.000 30.333 C 239.000 31.222,238.963 31.333,238.667 31.333 C 238.383 31.333,238.333 31.444,238.333 32.083 C 238.333 32.722,238.284 32.833,238.000 32.833 C 237.704 32.833,237.667 32.944,237.667 33.833 C 237.667 34.703,237.626 34.833,237.351 34.833 C 236.963 34.833,236.833 35.146,236.833 36.078 C 236.833 36.654,236.768 36.811,236.500 36.882 C 236.237 36.950,236.167 37.109,236.167 37.632 C 236.167 38.154,236.096 38.313,235.833 38.382 C 235.578 38.448,235.500 38.609,235.500 39.068 L 235.500 39.667 234.167 39.667 C 232.944 39.667,232.833 39.694,232.833 40.000 C 232.833 40.219,232.722 40.333,232.510 40.333 C 231.839 40.333,231.792 43.455,232.458 43.748 C 232.665 43.838,232.833 44.045,232.833 44.206 C 232.833 44.389,232.959 44.500,233.167 44.500 C 233.389 44.500,233.500 44.611,233.500 44.833 C 233.500 45.161,233.611 45.167,239.599 45.167 C 245.558 45.167,245.700 45.159,245.785 44.833 C 245.833 44.649,246.012 44.500,246.186 44.500 C 246.385 44.500,246.500 44.382,246.500 44.178 C 246.500 44.001,246.650 43.808,246.833 43.750 C 247.137 43.654,247.167 43.498,247.167 41.989 C 247.167 40.444,247.144 40.333,246.833 40.333 C 246.611 40.333,246.500 40.222,246.500 40.000 C 246.500 39.683,246.385 39.666,244.208 39.654 C 242.948 39.646,242.010 39.603,242.125 39.556 C 242.259 39.502,242.333 39.119,242.333 38.486 C 242.333 37.630,242.375 37.500,242.649 37.500 C 243.039 37.500,243.167 37.187,243.167 36.236 C 243.167 35.674,243.229 35.500,243.432 35.500 C 243.578 35.500,243.737 35.350,243.785 35.167 C 243.870 34.841,244.012 34.833,249.686 34.833 C 255.389 34.833,255.500 34.840,255.500 35.167 C 255.500 35.389,255.611 35.500,255.833 35.500 C 256.116 35.500,256.167 35.611,256.167 36.236 C 256.167 37.123,256.293 37.500,256.591 37.500 C 256.727 37.500,256.833 37.741,256.865 38.125 C 256.903 38.584,257.016 38.794,257.292 38.915 C 258.373 39.389,257.741 39.667,255.583 39.667 C 253.611 39.667,253.500 39.684,253.500 40.000 C 253.500 40.222,253.389 40.333,253.167 40.333 C 252.851 40.333,252.833 40.444,252.833 42.417 L 252.833 44.500 253.500 44.500 C 254.056 44.500,254.167 44.556,254.167 44.833 C 254.167 45.161,254.278 45.167,260.266 45.167 C 266.224 45.167,266.367 45.159,266.452 44.833 C 266.500 44.649,266.679 44.500,266.853 44.500 C 267.143 44.500,267.167 44.346,267.167 42.417 C 267.167 40.444,267.149 40.333,266.833 40.333 C 266.611 40.333,266.500 40.222,266.500 40.000 C 266.500 39.704,266.389 39.667,265.500 39.667 C 264.611 39.667,264.500 39.630,264.500 39.333 C 264.500 39.111,264.389 39.000,264.167 39.000 C 263.874 39.000,263.833 38.889,263.833 38.093 C 263.833 37.387,263.762 37.136,263.513 36.961 C 263.329 36.832,263.170 36.492,263.138 36.160 C 263.095 35.709,263.001 35.572,262.708 35.530 C 262.368 35.482,262.333 35.387,262.333 34.488 C 262.333 33.611,262.296 33.500,262.000 33.500 C 261.716 33.500,261.667 33.389,261.667 32.750 C 261.667 32.111,261.617 32.000,261.333 32.000 C 261.040 32.000,261.000 31.889,261.000 31.068 C 261.000 30.276,260.950 30.122,260.667 30.048 C 260.406 29.980,260.333 29.821,260.333 29.314 C 260.333 28.778,260.276 28.667,260.000 28.667 C 259.704 28.667,259.667 28.556,259.667 27.678 C 259.667 26.836,259.617 26.673,259.333 26.583 C 259.074 26.501,259.000 26.331,259.000 25.822 C 259.000 25.278,258.943 25.167,258.667 25.167 C 258.393 25.167,258.333 25.055,258.331 24.542 C 258.328 23.691,258.170 23.167,257.917 23.167 C 257.692 23.167,257.506 22.661,257.502 22.042 C 257.501 21.779,257.401 21.667,257.167 21.667 C 256.870 21.667,256.833 21.556,256.833 20.667 C 256.833 19.778,256.796 19.667,256.500 19.667 C 256.222 19.667,256.167 19.556,256.167 19.000 C 256.167 18.444,256.111 18.333,255.833 18.333 C 255.537 18.333,255.500 18.222,255.500 17.345 C 255.500 16.502,255.451 16.340,255.167 16.250 C 254.908 16.168,254.833 15.998,254.833 15.489 C 254.833 14.944,254.777 14.833,254.500 14.833 C 254.222 14.833,254.167 14.722,254.167 14.167 C 254.167 13.618,254.110 13.500,253.843 13.500 C 253.581 13.500,253.509 13.364,253.468 12.792 C 253.425 12.203,253.353 12.074,253.042 12.030 C 252.835 12.001,252.667 11.878,252.667 11.756 C 252.667 11.360,252.216 11.333,245.570 11.333 C 239.111 11.333,239.000 11.339,239.000 11.667 M268.208 11.444 C 268.094 11.490,268.000 11.634,268.000 11.764 C 268.000 11.894,267.851 12.000,267.670 12.000 C 267.457 12.000,267.303 12.148,267.235 12.417 C 267.178 12.646,267.034 12.833,266.916 12.833 C 266.385 12.833,266.288 15.309,266.814 15.447 C 267.028 15.503,267.162 15.737,267.233 16.181 L 267.337 16.833 268.669 16.833 L 270.000 16.833 270.000 26.500 C 270.000 36.056,270.004 36.167,270.333 36.167 C 270.638 36.167,270.667 36.278,270.667 37.481 C 270.667 38.654,270.702 38.804,271.000 38.882 C 271.257 38.949,271.333 39.109,271.333 39.583 C 271.333 40.058,271.409 40.218,271.667 40.285 C 271.851 40.333,272.000 40.512,272.000 40.686 C 272.000 40.910,272.120 41.000,272.417 41.000 C 272.792 41.000,272.833 41.067,272.833 41.667 C 272.833 42.222,272.889 42.333,273.167 42.333 C 273.389 42.333,273.500 42.444,273.500 42.667 C 273.500 42.944,273.611 43.000,274.167 43.000 C 274.767 43.000,274.833 43.042,274.833 43.417 C 274.833 43.714,274.924 43.833,275.147 43.833 C 275.321 43.833,275.500 43.982,275.548 44.167 C 275.616 44.424,275.776 44.500,276.250 44.500 C 276.724 44.500,276.884 44.576,276.952 44.833 C 277.030 45.131,277.179 45.167,278.353 45.167 C 279.556 45.167,279.667 45.195,279.667 45.500 C 279.667 45.822,279.778 45.833,283.016 45.833 C 286.224 45.833,286.368 45.819,286.452 45.500 C 286.527 45.214,286.679 45.167,287.535 45.167 C 288.391 45.167,288.543 45.120,288.618 44.833 C 288.685 44.578,288.847 44.499,289.311 44.498 C 290.152 44.495,290.667 44.334,290.667 44.075 C 290.667 43.954,290.817 43.808,291.000 43.750 C 291.183 43.692,291.333 43.499,291.333 43.322 C 291.333 43.111,291.448 43.000,291.667 43.000 C 291.889 43.000,292.000 42.889,292.000 42.667 C 292.000 42.448,292.111 42.333,292.322 42.333 C 292.499 42.333,292.689 42.191,292.744 42.018 C 292.799 41.845,292.992 41.664,293.172 41.617 C 293.421 41.552,293.500 41.388,293.500 40.932 C 293.500 40.444,293.562 40.333,293.833 40.333 C 294.110 40.333,294.167 40.222,294.167 39.678 C 294.167 39.169,294.241 38.999,294.500 38.917 C 294.796 38.823,294.833 38.664,294.833 37.489 C 294.833 36.278,294.861 36.167,295.167 36.167 C 295.496 36.167,295.500 36.056,295.500 26.500 L 295.500 16.833 296.814 16.833 C 298.394 16.833,298.328 16.951,298.331 14.128 C 298.333 12.201,298.328 12.172,297.932 12.072 C 297.712 12.017,297.494 11.828,297.448 11.653 C 297.317 11.152,286.016 11.154,285.885 11.655 C 285.827 11.875,285.596 12.011,285.150 12.086 L 284.500 12.196 284.500 14.181 C 284.500 16.056,284.519 16.167,284.833 16.167 C 285.056 16.167,285.167 16.278,285.167 16.500 C 285.167 16.816,285.278 16.833,287.250 16.833 L 289.333 16.833 289.333 26.167 C 289.333 35.389,289.329 35.500,289.000 35.500 C 288.723 35.500,288.667 35.611,288.667 36.155 C 288.667 36.664,288.592 36.834,288.333 36.917 C 288.074 36.999,288.000 37.169,288.000 37.678 C 288.000 38.215,287.942 38.333,287.678 38.333 C 287.501 38.333,287.308 38.483,287.250 38.667 C 287.171 38.917,286.998 39.000,286.556 39.000 C 286.109 39.000,285.948 39.079,285.882 39.333 C 285.807 39.619,285.654 39.667,284.814 39.667 C 283.944 39.667,283.833 39.704,283.833 40.000 C 283.833 40.284,283.722 40.333,283.083 40.333 C 282.444 40.333,282.333 40.284,282.333 40.000 C 282.333 39.704,282.222 39.667,281.333 39.667 C 280.444 39.667,280.333 39.630,280.333 39.333 C 280.333 39.056,280.222 39.000,279.667 39.000 C 279.111 39.000,279.000 38.944,279.000 38.667 C 279.000 38.444,278.889 38.333,278.667 38.333 C 278.443 38.333,278.333 38.222,278.333 37.995 C 278.333 37.809,278.202 37.608,278.042 37.549 C 277.643 37.402,277.506 37.166,277.503 36.625 C 277.501 36.279,277.419 36.167,277.167 36.167 C 276.870 36.167,276.833 36.056,276.833 35.167 C 276.833 34.278,276.796 34.167,276.500 34.167 C 276.171 34.167,276.167 34.056,276.167 25.500 L 276.167 16.833 278.250 16.833 C 280.179 16.833,280.333 16.810,280.333 16.519 C 280.333 16.346,280.482 16.167,280.667 16.118 C 280.971 16.039,281.000 15.891,281.000 14.432 C 281.000 12.944,280.977 12.833,280.667 12.833 C 280.422 12.833,280.333 12.722,280.333 12.417 C 280.333 12.120,280.243 12.000,280.019 12.000 C 279.846 12.000,279.667 11.851,279.618 11.667 C 279.534 11.345,268.965 11.139,268.208 11.444 M301.051 11.658 C 300.990 11.891,300.795 11.996,300.358 12.033 L 299.750 12.083 299.703 14.125 C 299.658 16.081,299.671 16.167,299.995 16.167 C 300.222 16.167,300.333 16.276,300.333 16.500 C 300.333 16.812,300.444 16.833,302.083 16.833 L 303.833 16.833 303.833 28.250 L 303.833 39.667 302.518 39.667 C 301.041 39.667,301.000 39.700,301.000 40.911 C 301.000 41.488,300.935 41.645,300.667 41.715 C 300.411 41.782,300.333 41.942,300.333 42.401 C 300.333 42.889,300.395 43.000,300.667 43.000 C 300.946 43.000,301.000 43.111,301.000 43.682 C 301.000 44.221,301.069 44.383,301.328 44.450 C 301.508 44.497,301.701 44.678,301.756 44.851 C 301.914 45.351,313.985 45.342,314.116 44.842 C 314.177 44.609,314.372 44.504,314.809 44.467 L 315.417 44.417 315.463 42.375 C 315.508 40.419,315.496 40.333,315.172 40.333 C 314.944 40.333,314.833 40.224,314.833 40.000 C 314.833 39.680,314.722 39.667,312.083 39.667 L 309.333 39.667 309.333 31.000 C 309.333 22.444,309.338 22.333,309.667 22.333 C 309.946 22.333,310.000 22.444,310.000 23.016 C 310.000 23.558,310.068 23.716,310.333 23.785 C 310.586 23.851,310.667 24.012,310.667 24.452 C 310.667 24.891,310.747 25.052,311.000 25.118 C 311.212 25.174,311.333 25.346,311.333 25.589 C 311.333 26.133,311.500 26.500,311.748 26.500 C 311.865 26.500,312.000 26.650,312.048 26.833 C 312.100 27.033,312.276 27.167,312.484 27.167 C 312.782 27.167,312.833 27.268,312.833 27.849 C 312.833 28.391,312.902 28.549,313.167 28.618 C 313.419 28.684,313.500 28.846,313.500 29.285 C 313.500 29.724,313.581 29.886,313.833 29.952 C 314.018 30.000,314.167 30.179,314.167 30.353 C 314.167 30.556,314.285 30.667,314.500 30.667 C 314.778 30.667,314.833 30.778,314.833 31.333 C 314.833 31.889,314.889 32.000,315.167 32.000 C 315.444 32.000,315.500 32.111,315.500 32.667 C 315.500 33.222,315.556 33.333,315.833 33.333 C 316.102 33.333,316.167 33.444,316.167 33.907 C 316.167 34.271,316.278 34.561,316.469 34.699 C 316.636 34.819,316.821 35.048,316.881 35.208 C 316.941 35.369,317.142 35.500,317.328 35.500 C 317.612 35.500,317.667 35.608,317.667 36.167 C 317.667 36.722,317.722 36.833,318.000 36.833 C 318.278 36.833,318.333 36.944,318.333 37.500 C 318.333 38.056,318.389 38.167,318.667 38.167 C 318.894 38.167,319.000 38.278,319.000 38.516 C 319.000 38.724,319.134 38.900,319.333 38.952 C 319.594 39.020,319.667 39.179,319.667 39.686 C 319.667 40.222,319.724 40.333,320.000 40.333 C 320.271 40.333,320.333 40.444,320.333 40.932 C 320.333 41.391,320.411 41.552,320.667 41.618 C 320.878 41.674,321.000 41.846,321.000 42.089 C 321.000 42.646,321.169 43.000,321.434 43.000 C 321.562 43.000,321.667 43.145,321.667 43.322 C 321.667 43.499,321.816 43.692,322.000 43.750 C 322.183 43.808,322.376 44.057,322.430 44.303 C 322.484 44.549,322.557 44.844,322.592 44.958 C 322.706 45.328,327.813 45.249,327.953 44.875 C 328.012 44.715,328.198 44.485,328.364 44.366 C 328.652 44.158,328.667 43.495,328.667 30.491 L 328.667 16.833 330.000 16.833 L 331.333 16.833 331.333 14.484 C 331.333 12.276,331.313 12.130,331.000 12.048 C 330.817 12.000,330.667 11.865,330.667 11.748 C 330.667 11.166,318.534 11.085,318.382 11.667 C 318.333 11.851,318.154 12.000,317.981 12.000 C 317.757 12.000,317.667 12.120,317.667 12.417 C 317.667 12.721,317.578 12.833,317.337 12.833 C 316.660 12.833,316.617 15.374,317.292 15.470 C 317.608 15.515,317.667 15.626,317.667 16.178 L 317.667 16.833 320.417 16.833 L 323.167 16.833 323.167 25.167 L 323.167 33.500 322.750 33.500 C 322.367 33.500,322.333 33.439,322.333 32.750 C 322.333 32.111,322.284 32.000,322.000 32.000 C 321.729 32.000,321.667 31.889,321.667 31.401 C 321.667 30.942,321.589 30.782,321.333 30.715 C 321.149 30.667,321.000 30.488,321.000 30.314 C 321.000 30.111,320.882 30.000,320.667 30.000 C 320.389 30.000,320.333 29.889,320.333 29.333 C 320.333 28.778,320.278 28.667,320.000 28.667 C 319.723 28.667,319.667 28.556,319.667 28.011 C 319.667 27.502,319.592 27.332,319.333 27.250 C 319.102 27.177,319.000 26.998,319.000 26.665 C 319.000 26.393,318.869 26.091,318.697 25.968 C 318.531 25.848,318.346 25.619,318.286 25.458 C 318.226 25.298,318.070 25.167,317.940 25.167 C 317.666 25.167,317.500 24.815,317.500 24.236 C 317.500 23.944,317.408 23.833,317.167 23.833 C 316.889 23.833,316.833 23.722,316.833 23.167 C 316.833 22.611,316.778 22.500,316.500 22.500 C 316.256 22.500,316.167 22.389,316.167 22.083 C 316.167 21.778,316.078 21.667,315.833 21.667 C 315.556 21.667,315.500 21.556,315.500 21.000 C 315.500 20.444,315.444 20.333,315.167 20.333 C 314.889 20.333,314.833 20.222,314.833 19.667 C 314.833 19.111,314.778 19.000,314.500 19.000 C 314.229 19.000,314.167 18.889,314.167 18.401 C 314.167 17.942,314.089 17.782,313.833 17.715 C 313.642 17.665,313.500 17.488,313.500 17.298 C 313.500 17.116,313.360 16.932,313.186 16.887 C 312.972 16.831,312.838 16.596,312.767 16.152 C 312.686 15.647,312.588 15.500,312.331 15.500 C 312.056 15.500,312.000 15.388,312.000 14.833 C 312.000 14.278,311.944 14.167,311.667 14.167 C 311.389 14.167,311.333 14.056,311.333 13.500 C 311.333 12.944,311.278 12.833,311.000 12.833 C 310.773 12.833,310.667 12.722,310.667 12.484 C 310.667 12.276,310.533 12.100,310.333 12.048 C 310.150 12.000,310.000 11.865,310.000 11.748 C 310.000 11.177,301.200 11.088,301.051 11.658 M369.382 11.667 C 369.333 11.851,369.154 12.000,368.981 12.000 C 368.757 12.000,368.667 12.120,368.667 12.417 C 368.667 12.722,368.578 12.833,368.333 12.833 C 368.028 12.833,368.000 12.944,368.000 14.167 C 368.000 15.389,368.028 15.500,368.333 15.500 C 368.611 15.500,368.667 15.611,368.667 16.167 L 368.667 16.833 370.000 16.833 L 371.333 16.833 371.333 28.250 L 371.333 39.667 370.000 39.667 L 368.667 39.667 368.667 40.333 C 368.667 40.889,368.611 41.000,368.333 41.000 C 368.028 41.000,368.000 41.111,368.000 42.333 C 368.000 43.556,368.028 43.667,368.333 43.667 C 368.578 43.667,368.667 43.778,368.667 44.083 C 368.667 44.380,368.757 44.500,368.981 44.500 C 369.154 44.500,369.333 44.649,369.382 44.833 C 369.515 45.343,380.814 45.358,380.948 44.849 C 380.993 44.674,381.174 44.493,381.349 44.448 C 381.851 44.316,381.837 40.333,381.333 40.333 C 381.111 40.333,381.000 40.222,381.000 40.000 C 381.000 39.688,380.889 39.667,379.250 39.667 L 377.500 39.667 377.500 34.833 L 377.500 30.000 382.750 30.000 L 388.000 30.000 388.000 34.833 L 388.000 39.667 386.250 39.667 C 384.611 39.667,384.500 39.688,384.500 40.000 C 384.500 40.222,384.389 40.333,384.167 40.333 C 383.851 40.333,383.833 40.444,383.833 42.417 C 383.833 44.389,383.851 44.500,384.167 44.500 C 384.350 44.500,384.500 44.604,384.500 44.732 C 384.500 45.330,395.962 45.430,396.118 44.833 C 396.167 44.649,396.346 44.500,396.519 44.500 C 396.743 44.500,396.833 44.380,396.833 44.083 C 396.833 43.778,396.922 43.667,397.167 43.667 C 397.472 43.667,397.500 43.556,397.500 42.333 C 397.500 41.111,397.472 41.000,397.167 41.000 C 396.889 41.000,396.833 40.889,396.833 40.333 L 396.833 39.667 395.500 39.667 L 394.167 39.667 394.167 28.250 L 394.167 16.833 395.500 16.833 L 396.833 16.833 396.833 16.167 C 396.833 15.611,396.889 15.500,397.167 15.500 C 397.463 15.500,397.500 15.389,397.500 14.500 C 397.500 13.611,397.463 13.500,397.167 13.500 C 396.883 13.500,396.833 13.389,396.833 12.750 C 396.833 12.127,396.780 12.000,396.519 12.000 C 396.346 12.000,396.167 11.851,396.118 11.667 C 395.962 11.070,384.500 11.170,384.500 11.768 C 384.500 11.896,384.350 12.000,384.167 12.000 C 383.849 12.000,383.833 12.111,383.833 14.417 L 383.833 16.833 385.917 16.833 L 388.000 16.833 388.000 20.667 L 388.000 24.500 382.750 24.500 L 377.500 24.500 377.500 20.667 L 377.500 16.833 379.250 16.833 C 380.889 16.833,381.000 16.812,381.000 16.500 C 381.000 16.278,381.111 16.167,381.333 16.167 C 381.648 16.167,381.667 16.056,381.667 14.151 C 381.667 12.276,381.643 12.129,381.333 12.048 C 381.150 12.000,381.000 11.865,381.000 11.748 C 381.000 11.167,369.533 11.086,369.382 11.667 M195.247 12.489 C 195.303 12.667,195.514 12.836,195.716 12.864 C 196.081 12.916,196.398 21.345,196.084 22.631 C 195.950 23.180,192.963 23.137,192.857 22.585 C 192.822 22.403,192.652 22.155,192.480 22.034 C 192.194 21.834,192.167 21.566,192.167 18.991 L 192.167 16.167 185.164 16.167 L 178.161 16.167 178.206 20.422 L 178.250 24.676 181.375 24.713 C 183.094 24.733,184.505 24.712,184.511 24.667 C 184.516 24.621,184.536 24.029,184.555 23.351 C 184.585 22.283,184.639 22.087,184.962 21.873 C 185.166 21.737,185.333 21.531,185.333 21.414 C 185.333 21.138,185.715 20.999,186.472 21.002 C 187.478 21.006,187.833 21.161,187.833 21.597 C 187.833 21.818,187.979 22.066,188.167 22.167 C 188.487 22.338,188.500 22.516,188.500 26.690 L 188.500 31.035 188.083 31.530 C 187.854 31.803,187.667 32.129,187.667 32.255 C 187.667 33.050,185.499 32.666,185.263 31.828 C 185.174 31.510,184.988 31.165,184.852 31.062 C 184.673 30.928,184.600 30.537,184.593 29.687 L 184.583 28.500 181.375 28.500 L 178.167 28.500 178.167 34.417 L 178.167 40.333 185.167 40.333 L 192.167 40.333 192.167 37.259 C 192.167 34.428,192.192 34.168,192.483 33.964 C 192.658 33.842,192.826 33.556,192.858 33.329 C 192.915 32.929,192.961 32.915,194.450 32.869 L 195.983 32.821 196.081 33.369 C 196.367 34.955,196.090 43.578,195.752 43.643 C 195.569 43.678,195.321 43.848,195.201 44.020 C 194.989 44.322,194.530 44.333,182.588 44.333 C 170.149 44.333,169.667 44.318,169.667 43.910 C 169.667 43.788,169.460 43.665,169.208 43.636 C 168.763 43.585,168.749 43.550,168.700 42.434 C 168.620 40.589,168.964 40.333,171.531 40.333 L 173.500 40.333 173.500 28.263 L 173.500 16.193 171.341 16.138 C 168.716 16.071,168.750 16.096,168.750 14.284 L 168.750 12.917 169.221 12.863 C 169.479 12.833,169.836 12.664,170.012 12.488 C 170.517 11.983,195.086 11.985,195.247 12.489 M118.333 16.500 C 118.333 16.776,118.444 16.833,118.981 16.833 C 119.488 16.833,119.647 16.906,119.715 17.167 C 119.782 17.422,119.942 17.500,120.401 17.500 C 120.882 17.500,121.000 17.563,121.000 17.822 C 121.000 17.999,121.142 18.189,121.315 18.244 C 121.489 18.299,121.669 18.492,121.716 18.672 C 121.767 18.866,121.944 19.000,122.151 19.000 C 122.389 19.000,122.500 19.106,122.500 19.333 C 122.500 19.556,122.611 19.667,122.833 19.667 C 123.105 19.667,123.167 19.778,123.167 20.266 C 123.167 20.724,123.245 20.885,123.500 20.952 C 123.761 21.020,123.833 21.179,123.833 21.686 C 123.833 22.222,123.891 22.333,124.167 22.333 C 124.466 22.333,124.500 22.444,124.500 23.417 C 124.500 24.389,124.534 24.500,124.833 24.500 C 125.157 24.500,125.167 24.611,125.167 28.231 C 125.167 31.821,125.154 31.964,124.833 32.048 C 124.546 32.123,124.500 32.276,124.500 33.151 C 124.500 34.056,124.464 34.167,124.167 34.167 C 123.891 34.167,123.833 34.278,123.833 34.814 C 123.833 35.321,123.761 35.480,123.500 35.548 C 123.245 35.615,123.167 35.776,123.167 36.234 C 123.167 36.722,123.105 36.833,122.833 36.833 C 122.617 36.833,122.500 36.944,122.500 37.149 C 122.500 37.346,122.344 37.503,122.083 37.568 C 121.814 37.636,121.667 37.790,121.667 38.003 C 121.667 38.222,121.554 38.333,121.333 38.333 C 121.111 38.333,121.000 38.444,121.000 38.667 C 121.000 38.938,120.889 39.000,120.401 39.000 C 119.942 39.000,119.782 39.078,119.715 39.333 C 119.647 39.594,119.488 39.667,118.981 39.667 C 118.444 39.667,118.333 39.724,118.333 40.000 C 118.333 40.312,118.222 40.333,116.583 40.333 C 114.944 40.333,114.833 40.312,114.833 40.000 C 114.833 39.721,114.722 39.667,114.151 39.667 C 113.609 39.667,113.451 39.598,113.382 39.333 C 113.313 39.072,113.154 39.000,112.647 39.000 C 112.111 39.000,112.000 38.943,112.000 38.667 C 112.000 38.444,111.889 38.333,111.667 38.333 C 111.439 38.333,111.333 38.222,111.333 37.984 C 111.333 37.776,111.199 37.600,111.000 37.548 C 110.816 37.500,110.667 37.321,110.667 37.147 C 110.667 36.944,110.549 36.833,110.333 36.833 C 110.062 36.833,110.000 36.722,110.000 36.234 C 110.000 35.776,109.922 35.615,109.667 35.548 C 109.414 35.482,109.333 35.321,109.333 34.882 C 109.333 34.442,109.253 34.281,109.000 34.215 C 108.714 34.140,108.667 33.988,108.667 33.132 C 108.667 32.276,108.620 32.123,108.333 32.048 C 107.900 31.935,107.800 24.500,108.232 24.500 C 108.545 24.500,108.667 24.129,108.667 23.172 C 108.667 22.512,108.725 22.357,109.000 22.285 C 109.283 22.211,109.333 22.058,109.333 21.266 C 109.333 20.444,109.373 20.333,109.667 20.333 C 109.889 20.333,110.000 20.222,110.000 20.000 C 110.000 19.778,110.111 19.667,110.333 19.667 C 110.556 19.667,110.667 19.556,110.667 19.333 C 110.667 19.139,110.778 19.000,110.932 19.000 C 111.078 19.000,111.236 18.852,111.284 18.672 C 111.331 18.492,111.511 18.299,111.685 18.244 C 111.858 18.189,112.000 17.999,112.000 17.822 C 112.000 17.558,112.119 17.500,112.655 17.500 C 113.164 17.500,113.334 17.426,113.417 17.167 C 113.499 16.908,113.669 16.833,114.178 16.833 C 114.722 16.833,114.833 16.777,114.833 16.500 C 114.833 16.188,114.944 16.167,116.583 16.167 C 118.222 16.167,118.333 16.188,118.333 16.500 M144.373 21.331 L 144.417 26.496 148.618 26.539 C 152.564 26.580,152.834 26.563,153.049 26.269 C 153.203 26.058,153.558 25.930,154.139 25.874 C 154.694 25.820,155.000 25.714,155.000 25.573 C 155.000 25.454,155.150 25.308,155.333 25.250 C 155.517 25.192,155.667 25.046,155.667 24.925 C 155.667 24.804,155.817 24.666,156.000 24.618 C 156.183 24.570,156.333 24.420,156.333 24.285 C 156.333 24.150,156.473 24.002,156.643 23.958 C 157.253 23.798,157.256 18.939,156.646 18.780 C 156.474 18.735,156.333 18.587,156.333 18.452 C 156.333 18.316,156.183 18.166,156.000 18.118 C 155.817 18.070,155.667 17.920,155.667 17.785 C 155.667 17.650,155.517 17.500,155.333 17.452 C 155.150 17.404,155.000 17.254,155.000 17.120 C 155.000 16.942,154.740 16.853,154.058 16.797 C 153.445 16.746,153.046 16.622,152.915 16.443 C 152.737 16.198,152.230 16.167,148.521 16.167 L 144.329 16.167 144.373 21.331 M83.167 17.167 C 83.167 17.472,83.278 17.500,84.500 17.500 C 85.708 17.500,85.833 17.530,85.833 17.823 C 85.833 18.078,85.991 18.170,86.583 18.259 C 87.023 18.325,87.333 18.459,87.333 18.584 C 87.333 18.836,87.701 19.000,88.264 19.000 C 88.556 19.000,88.667 19.092,88.667 19.333 C 88.667 19.556,88.778 19.667,89.000 19.667 C 89.222 19.667,89.333 19.778,89.333 20.000 C 89.333 20.222,89.444 20.333,89.667 20.333 C 89.889 20.333,90.000 20.444,90.000 20.667 C 90.000 20.889,90.111 21.000,90.333 21.000 C 90.611 21.000,90.667 21.111,90.667 21.667 C 90.667 22.222,90.722 22.333,91.000 22.333 C 91.297 22.333,91.333 22.444,91.333 23.349 C 91.333 24.224,91.379 24.377,91.667 24.452 C 91.987 24.536,92.000 24.679,92.000 28.250 C 92.000 31.821,91.987 31.964,91.667 32.048 C 91.379 32.123,91.333 32.276,91.333 33.151 C 91.333 34.056,91.297 34.167,91.000 34.167 C 90.722 34.167,90.667 34.278,90.667 34.833 C 90.667 35.389,90.611 35.500,90.333 35.500 C 90.111 35.500,90.000 35.611,90.000 35.833 C 90.000 36.056,89.889 36.167,89.667 36.167 C 89.444 36.167,89.333 36.278,89.333 36.500 C 89.333 36.722,89.222 36.833,89.000 36.833 C 88.785 36.833,88.667 36.944,88.667 37.145 C 88.667 37.379,88.504 37.483,88.020 37.561 C 87.564 37.634,87.347 37.763,87.285 37.999 C 87.216 38.265,87.059 38.333,86.516 38.333 C 85.944 38.333,85.833 38.388,85.833 38.667 C 85.833 38.972,85.722 39.000,84.500 39.000 C 83.278 39.000,83.167 39.028,83.167 39.333 C 83.167 39.651,83.056 39.667,80.750 39.667 L 78.333 39.667 78.333 28.250 L 78.333 16.833 80.750 16.833 C 83.056 16.833,83.167 16.849,83.167 17.167 M152.083 17.167 C 152.173 17.451,152.336 17.500,153.178 17.500 C 154.044 17.500,154.167 17.540,154.167 17.822 C 154.167 17.999,154.317 18.192,154.500 18.250 C 154.683 18.308,154.833 18.463,154.833 18.595 C 154.833 18.726,154.948 18.833,155.087 18.833 C 155.227 18.833,155.413 19.021,155.500 19.250 C 155.591 19.488,155.791 19.667,155.968 19.667 C 156.190 19.667,156.266 19.772,156.236 20.042 C 156.213 20.248,156.188 21.035,156.181 21.792 C 156.168 23.076,156.144 23.167,155.814 23.167 C 155.533 23.167,155.476 23.247,155.536 23.561 C 155.598 23.881,155.553 23.939,155.296 23.872 C 155.075 23.814,154.953 23.895,154.887 24.145 C 154.834 24.349,154.661 24.500,154.481 24.500 C 154.278 24.500,154.167 24.618,154.167 24.833 C 154.167 25.130,154.056 25.167,153.167 25.167 C 152.278 25.167,152.167 25.204,152.167 25.500 C 152.167 25.823,152.056 25.833,148.667 25.833 L 145.167 25.833 145.167 21.333 L 145.167 16.833 148.572 16.833 C 151.831 16.833,151.982 16.848,152.083 17.167 M250.000 21.019 C 250.000 21.556,250.057 21.667,250.333 21.667 C 250.611 21.667,250.667 21.778,250.667 22.333 C 250.667 22.889,250.722 23.000,251.000 23.000 C 251.297 23.000,251.333 23.111,251.333 24.016 C 251.333 24.882,251.381 25.044,251.658 25.116 C 251.891 25.177,251.996 25.372,252.033 25.809 C 252.073 26.293,252.159 26.427,252.458 26.470 C 252.799 26.518,252.833 26.613,252.833 27.512 C 252.833 28.389,252.871 28.500,253.167 28.500 C 253.411 28.500,253.500 28.611,253.500 28.917 L 253.500 29.333 249.667 29.333 L 245.833 29.333 245.833 28.583 C 245.833 27.944,245.883 27.833,246.167 27.833 C 246.463 27.833,246.500 27.722,246.500 26.833 C 246.500 25.944,246.537 25.833,246.833 25.833 C 247.109 25.833,247.167 25.722,247.167 25.186 C 247.167 24.697,247.242 24.519,247.475 24.458 C 247.788 24.376,248.000 23.720,248.000 22.832 C 248.000 22.512,248.102 22.346,248.333 22.285 C 248.616 22.211,248.667 22.058,248.667 21.277 C 248.667 20.451,248.705 20.351,249.042 20.298 C 249.797 20.180,250.000 20.333,250.000 21.019 " stroke="none" fill="#ffffff" fill-rule="evenodd"></path><path id="path4" d="M136.757 13.021 C 135.962 13.208,135.839 13.375,135.836 14.280 C 135.832 15.356,136.379 15.667,138.280 15.667 C 139.349 15.667,139.862 15.739,140.130 15.926 L 140.500 16.186 140.500 28.250 L 140.500 40.314 140.130 40.574 C 139.860 40.763,139.345 40.833,138.237 40.833 C 136.394 40.833,135.831 41.173,135.836 42.284 C 135.841 43.563,136.259 43.657,141.931 43.663 C 147.227 43.668,148.113 43.539,148.262 42.744 C 148.517 41.386,147.781 40.833,145.714 40.833 C 143.484 40.833,143.667 41.307,143.667 35.523 L 143.667 30.558 144.052 30.196 C 144.405 29.864,144.613 29.833,146.485 29.833 C 150.077 29.833,151.325 30.539,153.455 33.772 C 155.420 36.756,156.585 38.469,156.920 38.868 C 157.147 39.138,157.333 39.441,157.333 39.540 C 157.333 39.640,157.449 39.841,157.590 39.986 C 157.730 40.131,158.085 40.625,158.377 41.083 C 158.669 41.542,158.985 41.999,159.079 42.099 C 159.173 42.199,159.425 42.512,159.640 42.794 C 160.161 43.479,161.255 43.738,163.147 43.623 C 165.270 43.494,165.500 43.368,165.500 42.335 C 165.500 41.231,164.942 40.835,163.386 40.834 C 162.383 40.833,162.343 40.817,161.924 40.208 C 160.754 38.513,159.347 36.305,159.258 36.025 C 159.203 35.852,159.010 35.577,158.829 35.413 C 158.648 35.249,158.500 35.026,158.500 34.917 C 158.500 34.808,158.350 34.583,158.167 34.417 C 157.983 34.251,157.833 34.055,157.833 33.983 C 157.833 33.647,156.660 32.139,155.554 31.053 L 154.336 29.856 154.774 29.511 C 155.015 29.321,155.558 29.061,155.981 28.932 C 157.934 28.336,160.640 26.132,160.664 25.118 C 160.665 25.046,160.808 24.783,160.981 24.535 C 161.397 23.939,161.718 21.495,161.500 20.583 C 161.413 20.217,161.339 19.706,161.337 19.448 C 161.333 18.953,160.590 17.237,160.219 16.863 C 160.099 16.742,160.000 16.578,160.000 16.499 C 160.000 16.262,158.459 14.828,157.833 14.484 C 157.512 14.308,157.137 14.094,157.000 14.010 C 156.322 13.596,154.858 13.281,152.667 13.077 C 149.880 12.817,137.809 12.775,136.757 13.021 M170.645 13.003 C 169.278 13.234,168.796 13.779,169.147 14.697 C 169.474 15.551,169.918 15.747,171.642 15.797 C 172.526 15.823,173.419 15.881,173.625 15.925 L 174.000 16.006 174.000 28.220 C 174.000 37.497,173.952 40.481,173.800 40.633 C 173.673 40.760,173.032 40.833,172.043 40.833 C 169.706 40.833,168.690 41.495,169.153 42.715 C 169.513 43.662,169.577 43.667,182.316 43.667 C 194.731 43.667,194.774 43.665,195.414 43.071 L 195.833 42.683 195.833 38.602 C 195.833 33.511,195.728 33.167,194.167 33.167 L 193.357 33.167 193.095 34.067 C 192.904 34.725,192.833 35.713,192.833 37.728 C 192.833 40.286,192.810 40.501,192.511 40.661 C 192.069 40.897,178.264 40.897,177.822 40.661 C 177.335 40.400,177.319 28.549,177.805 28.109 C 178.067 27.872,178.571 27.833,181.388 27.833 C 185.383 27.833,185.228 27.752,185.392 29.932 C 185.519 31.610,185.672 31.833,186.693 31.833 C 187.711 31.833,187.750 31.657,187.750 27.000 C 187.750 22.552,187.697 22.137,187.082 21.734 C 186.086 21.081,185.478 21.772,185.325 23.732 C 185.183 25.556,185.309 25.500,181.327 25.500 C 178.366 25.500,178.025 25.471,177.776 25.195 C 177.367 24.744,177.356 16.091,177.764 15.934 C 178.108 15.802,192.225 15.802,192.570 15.934 C 192.793 16.020,192.833 16.405,192.834 18.476 C 192.836 21.925,193.098 22.667,194.316 22.667 C 195.637 22.667,195.742 22.349,195.802 18.195 C 195.867 13.664,195.850 13.567,194.948 13.158 C 194.205 12.820,172.544 12.682,170.645 13.003 M154.837 13.546 C 155.064 13.695,155.587 13.868,156.000 13.930 C 156.412 13.992,156.900 14.175,157.083 14.336 C 157.267 14.497,157.568 14.674,157.753 14.730 C 158.181 14.859,159.833 16.451,159.833 16.735 C 159.833 16.852,159.975 17.076,160.148 17.233 C 160.320 17.389,160.509 17.752,160.566 18.039 C 160.624 18.326,160.793 18.697,160.943 18.862 C 161.406 19.374,161.338 23.646,160.858 24.257 C 160.661 24.507,160.500 24.840,160.500 24.997 C 160.500 25.153,160.352 25.416,160.171 25.579 C 159.990 25.743,159.802 26.003,159.753 26.158 C 159.704 26.312,159.356 26.658,158.981 26.927 C 158.605 27.197,158.163 27.541,157.998 27.692 C 157.834 27.843,157.523 28.021,157.308 28.087 C 157.093 28.152,156.798 28.310,156.654 28.436 C 156.509 28.562,156.024 28.734,155.576 28.818 C 154.414 29.035,153.646 30.156,154.458 30.449 C 154.619 30.507,154.862 30.657,155.000 30.782 C 156.127 31.809,156.333 32.023,156.333 32.167 C 156.333 32.257,156.483 32.424,156.667 32.539 C 156.850 32.653,157.000 32.875,157.000 33.032 C 157.000 33.188,157.188 33.518,157.417 33.766 C 157.646 34.013,157.833 34.319,157.833 34.446 C 157.833 34.573,157.946 34.720,158.083 34.773 C 158.221 34.826,158.333 34.968,158.333 35.088 C 158.333 35.209,158.502 35.520,158.708 35.780 C 159.121 36.300,159.356 36.662,159.770 37.417 C 159.922 37.692,160.147 37.977,160.273 38.050 C 160.398 38.123,160.500 38.318,160.500 38.482 C 160.500 38.647,160.650 38.917,160.833 39.083 C 161.017 39.249,161.167 39.482,161.167 39.600 C 161.167 39.718,161.298 39.914,161.458 40.035 C 161.619 40.156,161.832 40.404,161.933 40.586 C 162.068 40.829,162.466 40.986,163.441 41.178 C 165.378 41.559,165.361 41.548,165.301 42.364 C 165.236 43.261,164.816 43.390,162.250 43.304 C 160.390 43.242,159.500 42.883,159.500 42.195 C 159.500 42.094,159.350 41.931,159.167 41.833 C 158.983 41.735,158.833 41.574,158.833 41.476 C 158.833 41.222,157.806 39.667,157.639 39.667 C 157.562 39.667,157.500 39.560,157.500 39.429 C 157.500 39.299,157.313 38.969,157.083 38.697 C 156.854 38.425,156.667 38.119,156.667 38.018 C 156.667 37.916,156.594 37.833,156.504 37.833 C 156.415 37.833,156.218 37.593,156.066 37.300 C 155.914 37.006,155.687 36.664,155.562 36.538 C 155.436 36.412,155.333 36.205,155.333 36.077 C 155.333 35.950,155.183 35.765,155.000 35.667 C 154.817 35.569,154.667 35.401,154.667 35.295 C 154.667 35.077,153.820 33.781,153.621 33.693 C 153.550 33.662,153.388 33.399,153.261 33.110 C 153.070 32.673,152.249 31.621,151.715 31.129 C 151.043 30.510,150.588 30.166,150.434 30.161 C 150.333 30.158,149.950 30.010,149.583 29.833 C 148.463 29.292,144.306 29.346,143.742 29.909 L 143.333 30.318 143.336 35.367 C 143.337 38.145,143.394 40.499,143.461 40.600 C 143.711 40.974,144.339 41.167,145.310 41.167 C 145.859 41.167,146.689 41.255,147.154 41.362 L 148.000 41.557 148.000 42.349 L 148.000 43.140 146.958 43.249 C 145.656 43.385,136.400 43.290,136.250 43.139 C 136.189 43.078,136.098 42.728,136.049 42.362 C 135.925 41.434,136.456 41.167,138.419 41.167 C 139.786 41.167,140.435 41.006,140.706 40.600 C 140.773 40.499,140.828 34.942,140.828 28.250 C 140.828 21.558,140.773 16.001,140.706 15.900 C 140.435 15.494,139.786 15.333,138.419 15.333 C 136.287 15.333,135.767 14.971,136.103 13.718 C 136.244 13.189,136.222 13.190,145.753 13.235 C 153.426 13.271,154.471 13.307,154.837 13.546 M195.264 13.718 C 195.662 14.180,195.667 14.224,195.667 17.709 L 195.667 21.232 195.227 21.866 C 194.715 22.605,194.078 22.713,193.567 22.150 C 193.287 21.839,193.244 21.470,193.194 18.941 C 193.162 17.304,193.064 15.994,192.965 15.875 C 192.720 15.579,177.662 15.571,177.367 15.867 C 177.030 16.204,177.087 25.063,177.429 25.405 C 177.651 25.627,178.242 25.667,181.313 25.667 C 185.686 25.667,185.547 25.721,185.626 23.977 C 185.710 22.107,185.751 22.000,186.378 22.003 C 187.432 22.008,187.412 21.924,187.468 26.369 C 187.536 31.692,187.503 31.821,186.167 31.502 C 185.770 31.407,185.748 31.338,185.708 30.076 C 185.623 27.375,185.831 27.500,181.405 27.500 C 176.624 27.500,177.152 26.626,177.206 34.455 L 177.250 40.740 177.667 40.951 C 178.267 41.255,192.065 41.255,192.667 40.951 L 193.083 40.741 193.178 37.329 C 193.288 33.351,193.292 33.333,194.226 33.335 C 195.519 33.337,195.667 33.872,195.667 38.560 L 195.667 42.470 195.150 42.905 L 194.634 43.340 182.321 43.295 L 170.007 43.250 169.591 42.833 C 168.648 41.888,169.470 41.313,171.917 41.205 C 173.307 41.144,173.645 41.075,173.958 40.787 L 174.333 40.442 174.333 28.241 C 174.333 18.684,174.288 16.004,174.125 15.869 C 174.010 15.774,173.092 15.672,172.083 15.640 C 169.741 15.568,168.532 14.650,169.540 13.710 C 170.077 13.209,169.898 13.215,182.973 13.233 L 194.862 13.250 195.264 13.718 M143.917 15.528 C 143.347 15.859,143.339 15.948,143.336 21.461 L 143.333 26.838 143.875 27.168 C 144.459 27.524,151.363 27.690,151.571 27.353 C 151.621 27.272,152.227 27.153,152.917 27.089 C 153.607 27.024,154.264 26.879,154.378 26.766 C 154.491 26.653,154.821 26.478,155.112 26.377 C 155.402 26.276,155.815 26.033,156.028 25.838 C 157.056 24.898,157.350 24.551,157.444 24.167 C 157.499 23.938,157.666 23.611,157.814 23.441 C 158.221 22.973,158.204 19.668,157.792 19.213 C 157.631 19.035,157.500 18.760,157.500 18.601 C 157.500 18.209,155.733 16.522,155.188 16.392 C 154.947 16.335,154.618 16.174,154.457 16.034 C 153.861 15.516,144.693 15.076,143.917 15.528 M153.917 16.115 C 154.283 16.301,154.775 16.499,155.009 16.555 C 155.243 16.611,155.795 17.011,156.234 17.445 C 159.081 20.252,158.067 25.017,154.307 26.500 C 153.108 26.973,144.771 27.246,144.008 26.837 C 143.516 26.574,143.469 16.279,143.958 15.886 C 144.472 15.473,153.039 15.670,153.917 16.115 " stroke="none" fill="#ffffff" fill-rule="evenodd"></path></g></svg>