<svg id="svg" version="1.1" xmlns="http://www.w3.org/2000/svg" xmlns:xlink="http://www.w3.org/1999/xlink" width="400" height="401.8058690744921" viewBox="0, 0, 400,401.8058690744921"><g id="svgg"><path id="path0" d="M188.600 12.192 C 188.380 12.286,185.770 12.562,182.800 12.804 C 175.089 13.435,169.675 14.176,163.800 15.406 C 162.040 15.774,159.790 16.232,158.800 16.422 C 157.061 16.757,153.370 17.678,148.800 18.917 C 146.286 19.598,134.605 23.421,133.400 23.956 C 132.960 24.152,131.160 24.892,129.400 25.601 C 123.514 27.974,122.237 28.560,115.000 32.217 C 96.555 41.535,82.762 51.475,66.934 66.856 C 64.404 69.314,63.486 70.279,58.975 75.220 C 56.449 77.987,49.995 85.942,48.000 88.749 C 47.010 90.142,45.832 91.758,45.381 92.341 C 39.515 99.932,29.409 118.554,24.620 130.600 C 24.008 132.140,23.362 133.760,23.185 134.200 C 22.597 135.666,20.872 140.579,20.377 142.200 C 20.108 143.080,19.742 144.250,19.563 144.800 C 19.179 145.982,17.335 152.397,16.805 154.400 C 16.257 156.466,14.537 164.608,14.016 167.600 C 13.767 169.030,13.402 171.100,13.205 172.200 C 8.927 196.102,10.868 227.638,18.178 253.000 C 19.906 258.997,21.898 265.037,23.191 268.200 C 23.371 268.640,24.276 270.890,25.203 273.200 C 28.350 281.045,34.114 292.762,36.449 296.062 C 36.862 296.646,37.200 297.231,37.200 297.363 C 37.200 297.961,45.645 310.642,48.931 314.978 C 58.971 328.224,72.311 341.928,82.846 349.817 C 83.421 350.248,85.581 351.874,87.646 353.430 C 91.340 356.216,97.032 360.166,98.600 361.034 C 99.040 361.277,101.020 362.486,103.000 363.720 C 107.092 366.271,108.178 366.865,115.400 370.500 C 126.019 375.845,138.554 380.765,148.400 383.452 C 153.342 384.801,157.935 385.950,160.200 386.403 C 161.520 386.668,163.410 387.048,164.400 387.249 C 166.308 387.636,169.945 388.234,172.600 388.598 C 173.480 388.718,175.460 388.996,177.000 389.214 C 191.481 391.271,212.393 391.011,227.600 388.587 C 228.370 388.465,230.080 388.196,231.400 387.989 C 232.720 387.783,234.610 387.450,235.600 387.249 C 236.590 387.048,238.480 386.668,239.800 386.403 C 242.065 385.950,246.658 384.801,251.600 383.452 C 261.446 380.765,273.981 375.845,284.600 370.500 C 291.822 366.865,292.908 366.271,297.000 363.720 C 298.980 362.486,300.960 361.277,301.400 361.034 C 302.968 360.166,308.660 356.216,312.354 353.430 C 314.419 351.874,316.579 350.248,317.154 349.817 C 327.689 341.928,341.029 328.224,351.069 314.978 C 354.355 310.642,362.800 297.961,362.800 297.363 C 362.800 297.231,363.138 296.646,363.551 296.062 C 365.886 292.762,371.650 281.045,374.797 273.200 C 375.724 270.890,376.629 268.640,376.809 268.200 C 379.965 260.479,383.543 247.795,385.553 237.200 C 390.585 210.677,390.210 186.101,384.371 159.800 C 382.631 151.963,380.433 143.960,379.564 142.305 C 379.364 141.923,379.200 141.387,379.200 141.114 C 379.200 140.689,377.857 136.797,376.815 134.200 C 376.638 133.760,375.992 132.140,375.380 130.600 C 370.591 118.554,360.485 99.932,354.619 92.341 C 354.168 91.758,352.990 90.142,352.000 88.749 C 350.005 85.942,343.551 77.987,341.025 75.220 C 336.514 70.279,335.596 69.314,333.066 66.856 C 317.238 51.475,303.445 41.535,285.000 32.217 C 277.763 28.560,276.486 27.974,270.600 25.601 C 268.840 24.892,267.040 24.162,266.600 23.979 C 264.316 23.028,256.253 20.408,250.200 18.650 C 248.133 18.050,242.161 16.595,240.400 16.263 C 239.850 16.159,237.960 15.772,236.200 15.403 C 231.435 14.403,225.270 13.502,218.200 12.770 C 214.191 12.356,189.352 11.870,188.600 12.192 M206.701 71.130 C 207.100 71.384,207.181 97.707,207.101 201.424 L 207.000 331.400 200.500 331.510 L 194.000 331.620 194.000 201.477 C 194.000 129.898,194.120 71.213,194.267 71.067 C 194.645 70.688,206.096 70.746,206.701 71.130 M141.800 201.200 L 141.800 331.000 135.500 331.110 L 129.200 331.220 129.200 201.200 L 129.200 71.180 135.500 71.290 L 141.800 71.400 141.800 201.200 M271.800 201.200 L 271.800 331.000 265.500 331.110 L 259.200 331.220 259.200 201.200 L 259.200 71.180 265.500 71.290 L 271.800 71.400 271.800 201.200 " stroke="none" fill="#e4e4e4" fill-rule="evenodd"></path><path id="path1" d="M181.200 0.800 C 181.200 1.040,179.596 1.200,177.187 1.200 C 173.990 1.200,173.128 1.322,172.945 1.800 C 172.769 2.258,172.017 2.400,169.757 2.400 C 168.052 2.400,166.800 2.569,166.800 2.800 C 166.800 3.022,165.733 3.200,164.400 3.200 C 163.067 3.200,162.000 3.378,162.000 3.600 C 162.000 3.820,161.010 4.000,159.800 4.000 C 158.590 4.000,157.600 4.180,157.600 4.400 C 157.600 4.620,156.694 4.800,155.587 4.800 C 154.168 4.800,153.507 4.977,153.345 5.400 C 153.188 5.807,152.550 6.000,151.357 6.000 C 150.391 6.000,149.600 6.180,149.600 6.400 C 149.600 6.620,148.790 6.800,147.800 6.800 C 146.810 6.800,146.000 6.980,146.000 7.200 C 146.000 7.420,145.370 7.600,144.600 7.600 C 143.830 7.600,143.200 7.780,143.200 8.000 C 143.200 8.220,142.583 8.400,141.829 8.400 C 141.074 8.400,140.187 8.670,139.857 9.000 C 139.527 9.330,138.704 9.600,138.029 9.600 C 137.353 9.600,136.800 9.780,136.800 10.000 C 136.800 10.220,136.271 10.400,135.624 10.400 C 134.977 10.400,134.336 10.580,134.200 10.800 C 134.064 11.020,133.603 11.200,133.176 11.200 C 132.749 11.200,132.400 11.380,132.400 11.600 C 132.400 11.820,131.854 12.000,131.187 12.000 C 130.479 12.000,129.879 12.249,129.745 12.600 C 129.603 12.970,128.995 13.200,128.157 13.200 C 127.411 13.200,126.800 13.380,126.800 13.600 C 126.800 13.820,126.440 14.000,126.000 14.000 C 125.560 14.000,125.200 14.180,125.200 14.400 C 125.200 14.620,124.570 14.800,123.800 14.800 C 123.030 14.800,122.400 14.977,122.400 15.192 C 122.400 15.408,121.950 15.698,121.400 15.836 C 120.850 15.974,120.400 16.247,120.400 16.443 C 120.400 16.640,120.040 16.800,119.600 16.800 C 119.160 16.800,118.800 16.980,118.800 17.200 C 118.800 17.420,118.170 17.600,117.400 17.600 C 116.630 17.600,116.000 17.780,116.000 18.000 C 116.000 18.220,115.640 18.400,115.200 18.400 C 114.756 18.400,114.400 18.667,114.400 19.000 C 114.400 19.373,114.022 19.600,113.400 19.600 C 112.850 19.600,112.400 19.780,112.400 20.000 C 112.400 20.220,112.040 20.400,111.600 20.400 C 111.160 20.400,110.800 20.580,110.800 20.800 C 110.800 21.020,110.350 21.200,109.800 21.200 C 109.250 21.200,108.800 21.380,108.800 21.600 C 108.800 21.820,108.440 22.000,108.000 22.000 C 107.556 22.000,107.200 22.267,107.200 22.600 C 107.200 22.973,106.822 23.200,106.200 23.200 C 105.650 23.200,105.200 23.380,105.200 23.600 C 105.200 23.820,104.840 24.000,104.400 24.000 C 103.960 24.000,103.600 24.180,103.600 24.400 C 103.600 24.620,103.227 24.800,102.771 24.800 C 101.886 24.800,100.800 25.666,100.800 26.371 C 100.800 26.607,100.350 26.800,99.800 26.800 C 99.250 26.800,98.800 26.980,98.800 27.200 C 98.800 27.420,98.440 27.600,98.000 27.600 C 97.560 27.600,97.200 27.780,97.200 28.000 C 97.200 28.220,96.930 28.400,96.600 28.400 C 96.270 28.400,96.000 28.580,96.000 28.800 C 96.000 29.020,95.640 29.200,95.200 29.200 C 94.756 29.200,94.400 29.467,94.400 29.800 C 94.400 30.130,94.074 30.400,93.675 30.400 C 93.277 30.400,92.564 30.760,92.092 31.200 C 91.620 31.640,91.022 32.000,90.763 32.000 C 90.504 32.000,89.875 32.450,89.365 33.000 C 88.855 33.550,88.199 34.000,87.907 34.000 C 87.615 34.000,87.117 34.360,86.800 34.800 C 86.483 35.240,85.948 35.606,85.612 35.613 C 84.933 35.627,83.600 36.528,83.600 36.973 C 83.600 37.526,82.447 38.400,81.717 38.400 C 81.310 38.400,80.717 38.760,80.400 39.200 C 80.083 39.640,79.598 40.000,79.322 40.000 C 79.047 40.000,78.011 40.810,77.021 41.800 C 76.031 42.790,75.055 43.600,74.853 43.600 C 74.650 43.600,73.953 44.095,73.304 44.700 C 72.655 45.305,71.646 46.158,71.062 46.595 C 70.478 47.032,70.000 47.617,70.000 47.895 C 70.000 48.173,69.640 48.400,69.200 48.400 C 68.760 48.400,68.400 48.580,68.400 48.800 C 68.400 49.020,68.207 49.200,67.971 49.200 C 67.505 49.200,66.400 50.185,66.400 50.600 C 66.400 50.928,65.336 52.000,65.010 52.000 C 64.689 52.000,62.800 53.889,62.800 54.210 C 62.800 54.531,61.731 55.600,61.410 55.600 C 61.089 55.600,59.200 57.489,59.200 57.810 C 59.200 58.131,58.131 59.200,57.810 59.200 C 57.489 59.200,55.600 61.089,55.600 61.410 C 55.600 61.731,54.531 62.800,54.210 62.800 C 53.889 62.800,52.000 64.689,52.000 65.010 C 52.000 65.374,50.910 66.400,50.524 66.400 C 50.340 66.400,49.832 66.880,49.395 67.466 C 48.958 68.052,48.375 68.759,48.100 69.037 C 47.825 69.315,47.600 69.826,47.600 70.171 C 47.600 70.517,47.407 70.800,47.171 70.800 C 46.671 70.800,45.604 71.794,45.591 72.271 C 45.587 72.452,44.957 73.138,44.191 73.796 C 43.426 74.454,42.800 75.225,42.800 75.510 C 42.800 75.794,42.170 76.657,41.400 77.427 C 40.630 78.197,40.000 79.018,40.000 79.253 C 40.000 79.487,39.460 80.183,38.800 80.800 C 38.140 81.417,37.600 82.299,37.600 82.760 C 37.600 83.222,37.412 83.600,37.182 83.600 C 36.531 83.600,34.800 85.490,34.800 86.200 C 34.800 86.550,34.350 87.286,33.800 87.836 C 33.250 88.386,32.800 89.058,32.800 89.330 C 32.800 89.601,32.440 90.083,32.000 90.400 C 31.560 90.717,31.200 91.297,31.200 91.688 C 31.200 92.080,31.020 92.400,30.800 92.400 C 30.580 92.400,30.400 92.651,30.400 92.957 C 30.400 93.264,30.130 93.618,29.800 93.745 C 29.470 93.871,29.200 94.251,29.200 94.587 C 29.200 94.924,29.020 95.200,28.800 95.200 C 28.580 95.200,28.400 95.610,28.400 96.112 C 28.400 96.613,28.040 97.283,27.600 97.600 C 27.160 97.917,26.800 98.478,26.800 98.846 C 26.800 99.213,26.530 99.618,26.200 99.745 C 25.870 99.871,25.600 100.341,25.600 100.787 C 25.600 101.234,25.420 101.600,25.200 101.600 C 24.980 101.600,24.800 101.960,24.800 102.400 C 24.800 102.840,24.620 103.200,24.400 103.200 C 24.180 103.200,24.000 103.470,24.000 103.800 C 24.000 104.130,23.820 104.400,23.600 104.400 C 23.380 104.400,23.200 104.741,23.200 105.157 C 23.200 105.574,22.930 106.018,22.600 106.145 C 22.270 106.271,22.000 106.741,22.000 107.187 C 22.000 107.634,21.820 108.000,21.600 108.000 C 21.380 108.000,21.200 108.360,21.200 108.800 C 21.200 109.240,21.020 109.600,20.800 109.600 C 20.580 109.600,20.400 110.050,20.400 110.600 C 20.400 111.150,20.220 111.600,20.000 111.600 C 19.780 111.600,19.600 111.941,19.600 112.357 C 19.600 112.774,19.330 113.218,19.000 113.345 C 18.670 113.471,18.400 113.941,18.400 114.387 C 18.400 114.834,18.220 115.200,18.000 115.200 C 17.780 115.200,17.600 115.560,17.600 116.000 C 17.600 116.440,17.420 116.800,17.200 116.800 C 16.980 116.800,16.800 117.430,16.800 118.200 C 16.800 118.970,16.620 119.600,16.400 119.600 C 16.180 119.600,16.000 119.966,16.000 120.413 C 16.000 120.859,15.730 121.329,15.400 121.455 C 15.070 121.582,14.800 122.026,14.800 122.443 C 14.800 122.859,14.620 123.200,14.400 123.200 C 14.180 123.200,14.000 123.830,14.000 124.600 C 14.000 125.370,13.820 126.000,13.600 126.000 C 13.380 126.000,13.200 126.360,13.200 126.800 C 13.200 127.240,13.040 127.600,12.845 127.600 C 12.649 127.600,12.371 128.230,12.226 129.000 C 12.082 129.770,11.792 130.400,11.582 130.400 C 11.372 130.400,11.200 131.030,11.200 131.800 C 11.200 132.570,11.020 133.200,10.800 133.200 C 10.580 133.200,10.400 133.830,10.400 134.600 C 10.400 135.370,10.220 136.000,10.000 136.000 C 9.780 136.000,9.600 136.521,9.600 137.157 C 9.600 137.817,9.342 138.413,9.000 138.545 C 8.649 138.679,8.400 139.279,8.400 139.987 C 8.400 140.654,8.220 141.200,8.000 141.200 C 7.780 141.200,7.600 141.830,7.600 142.600 C 7.600 143.370,7.420 144.000,7.200 144.000 C 6.980 144.000,6.800 144.810,6.800 145.800 C 6.800 146.790,6.620 147.600,6.400 147.600 C 6.180 147.600,6.000 148.153,6.000 148.829 C 6.000 149.504,5.730 150.327,5.400 150.657 C 5.070 150.987,4.800 151.874,4.800 152.629 C 4.800 153.383,4.620 154.000,4.400 154.000 C 4.180 154.000,4.000 154.990,4.000 156.200 C 4.000 157.410,3.820 158.400,3.600 158.400 C 3.380 158.400,3.200 159.390,3.200 160.600 C 3.200 161.810,3.020 162.800,2.800 162.800 C 2.571 162.800,2.400 164.000,2.400 165.600 C 2.400 167.822,2.276 168.400,1.800 168.400 C 1.330 168.400,1.200 168.947,1.200 170.920 C 1.200 172.403,0.994 173.646,0.700 173.940 C -0.031 174.671,-0.031 227.656,0.700 227.900 C 1.040 228.013,1.200 229.016,1.200 231.033 C 1.200 233.404,1.321 234.000,1.800 234.000 C 2.276 234.000,2.400 234.578,2.400 236.800 C 2.400 238.400,2.571 239.600,2.800 239.600 C 3.020 239.600,3.200 240.590,3.200 241.800 C 3.200 243.010,3.380 244.000,3.600 244.000 C 3.820 244.000,4.000 244.810,4.000 245.800 C 4.000 246.790,4.180 247.600,4.400 247.600 C 4.620 247.600,4.800 248.478,4.800 249.551 C 4.800 250.797,5.017 251.682,5.400 252.000 C 5.730 252.274,6.000 253.016,6.000 253.649 C 6.000 254.282,6.180 254.800,6.400 254.800 C 6.620 254.800,6.800 255.610,6.800 256.600 C 6.800 257.590,6.980 258.400,7.200 258.400 C 7.420 258.400,7.600 259.030,7.600 259.800 C 7.600 260.570,7.780 261.200,8.000 261.200 C 8.220 261.200,8.400 261.746,8.400 262.413 C 8.400 263.121,8.649 263.721,9.000 263.855 C 9.370 263.997,9.600 264.605,9.600 265.443 C 9.600 266.189,9.780 266.800,10.000 266.800 C 10.220 266.800,10.400 267.340,10.400 268.000 C 10.400 268.660,10.580 269.200,10.800 269.200 C 11.020 269.200,11.200 269.830,11.200 270.600 C 11.200 271.370,11.360 272.000,11.555 272.000 C 11.751 272.000,12.029 272.630,12.174 273.400 C 12.318 274.170,12.608 274.800,12.818 274.800 C 13.028 274.800,13.200 275.160,13.200 275.600 C 13.200 276.040,13.380 276.400,13.600 276.400 C 13.820 276.400,14.000 277.030,14.000 277.800 C 14.000 278.570,14.180 279.200,14.400 279.200 C 14.620 279.200,14.800 279.566,14.800 280.013 C 14.800 280.459,15.070 280.929,15.400 281.055 C 15.730 281.182,16.000 281.626,16.000 282.043 C 16.000 282.459,16.180 282.800,16.400 282.800 C 16.620 282.800,16.800 283.430,16.800 284.200 C 16.800 284.970,16.980 285.600,17.200 285.600 C 17.420 285.600,17.600 285.960,17.600 286.400 C 17.600 286.840,17.780 287.200,18.000 287.200 C 18.220 287.200,18.400 287.650,18.400 288.200 C 18.400 288.822,18.627 289.200,19.000 289.200 C 19.373 289.200,19.600 289.578,19.600 290.200 C 19.600 290.750,19.780 291.200,20.000 291.200 C 20.220 291.200,20.400 291.560,20.400 292.000 C 20.400 292.440,20.580 292.800,20.800 292.800 C 21.020 292.800,21.200 293.042,21.200 293.339 C 21.200 294.141,22.402 296.400,22.829 296.400 C 23.033 296.400,23.200 296.726,23.200 297.125 C 23.200 297.523,23.560 298.236,24.000 298.708 C 24.440 299.180,24.800 299.844,24.800 300.183 C 24.800 300.522,24.980 300.800,25.200 300.800 C 25.420 300.800,25.600 301.166,25.600 301.613 C 25.600 302.059,25.870 302.529,26.200 302.655 C 26.530 302.782,26.800 303.226,26.800 303.643 C 26.800 304.059,26.980 304.400,27.200 304.400 C 27.420 304.400,27.600 304.670,27.600 305.000 C 27.600 305.330,27.780 305.600,28.000 305.600 C 28.220 305.600,28.400 305.883,28.400 306.229 C 28.400 306.947,29.334 308.000,29.971 308.000 C 30.207 308.000,30.400 308.450,30.400 309.000 C 30.400 309.550,30.580 310.000,30.800 310.000 C 31.020 310.000,31.200 310.360,31.200 310.800 C 31.200 311.240,31.380 311.600,31.600 311.600 C 31.820 311.600,32.000 311.870,32.000 312.200 C 32.000 312.530,32.180 312.800,32.400 312.800 C 32.620 312.800,32.803 313.025,32.807 313.300 C 32.811 313.575,33.261 314.224,33.807 314.742 C 34.353 315.260,34.800 315.950,34.800 316.275 C 34.800 316.601,35.430 317.479,36.200 318.226 C 36.970 318.974,37.600 319.819,37.600 320.105 C 37.600 320.390,37.960 320.883,38.400 321.200 C 38.840 321.517,39.200 321.924,39.200 322.105 C 39.200 322.456,39.662 323.063,41.100 324.601 C 41.595 325.130,42.000 325.752,42.000 325.982 C 42.000 326.212,42.180 326.400,42.400 326.400 C 42.620 326.400,42.800 326.760,42.800 327.200 C 42.800 327.640,42.993 328.000,43.229 328.000 C 43.689 328.000,44.800 328.983,44.800 329.390 C 44.800 329.804,46.736 331.600,47.182 331.600 C 47.412 331.600,47.600 331.925,47.600 332.322 C 47.600 333.130,50.061 336.000,50.754 336.000 C 50.999 336.000,51.200 336.186,51.200 336.413 C 51.200 336.951,53.849 339.600,54.387 339.600 C 54.614 339.600,54.800 339.786,54.800 340.013 C 54.800 340.551,57.449 343.200,57.987 343.200 C 58.214 343.200,58.400 343.386,58.400 343.613 C 58.400 344.151,61.049 346.800,61.587 346.800 C 61.814 346.800,62.000 346.981,62.000 347.203 C 62.000 347.610,67.424 353.200,67.820 353.200 C 68.089 353.200,68.870 353.844,70.608 355.500 C 71.359 356.215,72.159 356.800,72.387 356.800 C 72.614 356.800,72.800 356.993,72.800 357.229 C 72.800 357.898,73.867 358.799,74.671 358.809 C 75.072 358.813,75.938 359.443,76.596 360.209 C 77.254 360.974,78.037 361.600,78.336 361.600 C 78.635 361.600,79.383 362.140,80.000 362.800 C 80.617 363.460,81.499 364.000,81.960 364.000 C 82.422 364.000,82.800 364.188,82.800 364.418 C 82.800 365.107,84.710 366.800,85.487 366.800 C 85.885 366.800,86.548 367.250,86.961 367.800 C 87.374 368.350,87.957 368.800,88.256 368.800 C 88.555 368.800,88.800 368.980,88.800 369.200 C 88.800 369.420,89.070 369.600,89.400 369.600 C 89.730 369.600,90.000 369.780,90.000 370.000 C 90.000 370.220,90.294 370.400,90.654 370.400 C 91.014 370.400,91.725 370.850,92.235 371.400 C 92.745 371.950,93.440 372.400,93.781 372.400 C 94.121 372.400,94.400 372.580,94.400 372.800 C 94.400 373.020,94.760 373.200,95.200 373.200 C 95.640 373.200,96.000 373.380,96.000 373.600 C 96.000 373.820,96.270 374.000,96.600 374.000 C 96.930 374.000,97.200 374.180,97.200 374.400 C 97.200 374.620,97.560 374.800,98.000 374.800 C 98.444 374.800,98.800 375.067,98.800 375.400 C 98.800 375.773,99.178 376.000,99.800 376.000 C 100.350 376.000,100.800 376.180,100.800 376.400 C 100.800 376.620,101.160 376.800,101.600 376.800 C 102.040 376.800,102.400 376.980,102.400 377.200 C 102.400 377.420,102.670 377.600,103.000 377.600 C 103.330 377.600,103.600 377.780,103.600 378.000 C 103.600 378.220,103.960 378.400,104.400 378.400 C 104.844 378.400,105.200 378.667,105.200 379.000 C 105.200 379.373,105.578 379.600,106.200 379.600 C 106.750 379.600,107.200 379.780,107.200 380.000 C 107.200 380.220,107.560 380.400,108.000 380.400 C 108.440 380.400,108.800 380.580,108.800 380.800 C 108.800 381.020,109.250 381.200,109.800 381.200 C 110.350 381.200,110.800 381.380,110.800 381.600 C 110.800 381.820,111.160 382.000,111.600 382.000 C 112.044 382.000,112.400 382.267,112.400 382.600 C 112.400 382.973,112.778 383.200,113.400 383.200 C 113.950 383.200,114.400 383.380,114.400 383.600 C 114.400 383.820,114.760 384.000,115.200 384.000 C 115.640 384.000,116.000 384.180,116.000 384.400 C 116.000 384.620,116.630 384.800,117.400 384.800 C 118.170 384.800,118.801 384.935,118.803 385.100 C 118.806 385.502,121.119 386.800,121.832 386.800 C 122.145 386.800,122.400 386.980,122.400 387.200 C 122.400 387.420,123.030 387.600,123.800 387.600 C 124.570 387.600,125.200 387.780,125.200 388.000 C 125.200 388.220,125.483 388.400,125.829 388.400 C 126.174 388.400,126.727 388.670,127.057 389.000 C 127.387 389.330,128.094 389.600,128.629 389.600 C 129.163 389.600,129.600 389.780,129.600 390.000 C 129.600 390.220,130.230 390.400,131.000 390.400 C 131.770 390.400,132.400 390.580,132.400 390.800 C 132.400 391.020,132.760 391.200,133.200 391.200 C 133.640 391.200,134.000 391.380,134.000 391.600 C 134.000 391.820,134.553 392.000,135.229 392.000 C 135.904 392.000,136.727 392.270,137.057 392.600 C 137.387 392.930,138.274 393.200,139.029 393.200 C 139.783 393.200,140.400 393.380,140.400 393.600 C 140.400 393.820,141.030 394.000,141.800 394.000 C 142.570 394.000,143.200 394.180,143.200 394.400 C 143.200 394.620,143.830 394.800,144.600 394.800 C 145.370 394.800,146.000 394.980,146.000 395.200 C 146.000 395.420,146.791 395.600,147.757 395.600 C 148.950 395.600,149.588 395.793,149.745 396.200 C 149.897 396.596,150.523 396.800,151.587 396.800 C 152.474 396.800,153.200 396.980,153.200 397.200 C 153.200 397.420,154.190 397.600,155.400 397.600 C 156.610 397.600,157.600 397.780,157.600 398.000 C 157.600 398.220,158.590 398.400,159.800 398.400 C 161.010 398.400,162.000 398.580,162.000 398.800 C 162.000 399.021,163.052 399.200,164.357 399.200 C 166.084 399.200,166.776 399.361,166.945 399.800 C 167.118 400.252,167.848 400.400,169.907 400.400 C 171.560 400.400,172.838 400.598,173.140 400.900 C 173.530 401.290,179.445 401.400,200.000 401.400 C 220.555 401.400,226.470 401.290,226.860 400.900 C 227.162 400.598,228.440 400.400,230.093 400.400 C 232.152 400.400,232.882 400.252,233.055 399.800 C 233.224 399.361,233.916 399.200,235.643 399.200 C 236.948 399.200,238.000 399.021,238.000 398.800 C 238.000 398.580,238.990 398.400,240.200 398.400 C 241.410 398.400,242.400 398.220,242.400 398.000 C 242.400 397.780,243.390 397.600,244.600 397.600 C 245.810 397.600,246.800 397.420,246.800 397.200 C 246.800 396.980,247.526 396.800,248.413 396.800 C 249.477 396.800,250.103 396.596,250.255 396.200 C 250.412 395.793,251.050 395.600,252.243 395.600 C 253.209 395.600,254.000 395.420,254.000 395.200 C 254.000 394.980,254.630 394.800,255.400 394.800 C 256.170 394.800,256.800 394.620,256.800 394.400 C 256.800 394.180,257.430 394.000,258.200 394.000 C 258.970 394.000,259.600 393.820,259.600 393.600 C 259.600 393.380,260.217 393.200,260.971 393.200 C 261.726 393.200,262.613 392.930,262.943 392.600 C 263.273 392.270,264.096 392.000,264.771 392.000 C 265.447 392.000,266.000 391.820,266.000 391.600 C 266.000 391.380,266.360 391.200,266.800 391.200 C 267.240 391.200,267.600 391.020,267.600 390.800 C 267.600 390.580,268.230 390.400,269.000 390.400 C 269.770 390.400,270.400 390.220,270.400 390.000 C 270.400 389.780,270.837 389.600,271.371 389.600 C 271.906 389.600,272.613 389.330,272.943 389.000 C 273.273 388.670,273.826 388.400,274.171 388.400 C 274.517 388.400,274.800 388.220,274.800 388.000 C 274.800 387.780,275.430 387.600,276.200 387.600 C 276.970 387.600,277.600 387.420,277.600 387.200 C 277.600 386.980,277.855 386.800,278.168 386.800 C 278.881 386.800,281.194 385.502,281.197 385.100 C 281.199 384.935,281.830 384.800,282.600 384.800 C 283.370 384.800,284.000 384.620,284.000 384.400 C 284.000 384.180,284.360 384.000,284.800 384.000 C 285.240 384.000,285.600 383.820,285.600 383.600 C 285.600 383.380,286.050 383.200,286.600 383.200 C 287.222 383.200,287.600 382.973,287.600 382.600 C 287.600 382.267,287.956 382.000,288.400 382.000 C 288.840 382.000,289.200 381.820,289.200 381.600 C 289.200 381.380,289.650 381.200,290.200 381.200 C 290.750 381.200,291.200 381.020,291.200 380.800 C 291.200 380.580,291.560 380.400,292.000 380.400 C 292.440 380.400,292.800 380.220,292.800 380.000 C 292.800 379.780,293.250 379.600,293.800 379.600 C 294.422 379.600,294.800 379.373,294.800 379.000 C 294.800 378.667,295.156 378.400,295.600 378.400 C 296.040 378.400,296.400 378.220,296.400 378.000 C 296.400 377.780,296.670 377.600,297.000 377.600 C 297.330 377.600,297.600 377.420,297.600 377.200 C 297.600 376.980,297.960 376.800,298.400 376.800 C 298.840 376.800,299.200 376.620,299.200 376.400 C 299.200 376.180,299.650 376.000,300.200 376.000 C 300.822 376.000,301.200 375.773,301.200 375.400 C 301.200 375.067,301.556 374.800,302.000 374.800 C 302.440 374.800,302.800 374.620,302.800 374.400 C 302.800 374.180,303.070 374.000,303.400 374.000 C 303.730 374.000,304.000 373.820,304.000 373.600 C 304.000 373.380,304.360 373.200,304.800 373.200 C 305.240 373.200,305.600 373.020,305.600 372.800 C 305.600 372.580,305.879 372.400,306.219 372.400 C 306.560 372.400,307.255 371.950,307.765 371.400 C 308.275 370.850,308.986 370.400,309.346 370.400 C 309.706 370.400,310.000 370.220,310.000 370.000 C 310.000 369.780,310.270 369.600,310.600 369.600 C 310.930 369.600,311.200 369.420,311.200 369.200 C 311.200 368.980,311.445 368.800,311.744 368.800 C 312.043 368.800,312.626 368.350,313.039 367.800 C 313.452 367.250,314.115 366.800,314.513 366.800 C 315.290 366.800,317.200 365.107,317.200 364.418 C 317.200 364.188,317.578 364.000,318.040 364.000 C 318.501 364.000,319.383 363.460,320.000 362.800 C 320.617 362.140,321.365 361.600,321.664 361.600 C 321.963 361.600,322.746 360.974,323.404 360.209 C 324.062 359.443,324.928 358.813,325.329 358.809 C 326.133 358.799,327.200 357.898,327.200 357.229 C 327.200 356.993,327.345 356.800,327.522 356.800 C 327.699 356.800,328.554 356.171,329.422 355.402 C 331.641 353.437,331.938 353.200,332.180 353.200 C 332.576 353.200,338.000 347.610,338.000 347.203 C 338.000 346.981,338.186 346.800,338.413 346.800 C 338.951 346.800,341.600 344.151,341.600 343.613 C 341.600 343.386,341.786 343.200,342.013 343.200 C 342.551 343.200,345.200 340.551,345.200 340.013 C 345.200 339.786,345.386 339.600,345.613 339.600 C 346.151 339.600,348.800 336.951,348.800 336.413 C 348.800 336.186,349.001 336.000,349.246 336.000 C 349.939 336.000,352.400 333.130,352.400 332.322 C 352.400 331.925,352.588 331.600,352.818 331.600 C 353.264 331.600,355.200 329.804,355.200 329.390 C 355.200 328.983,356.311 328.000,356.771 328.000 C 357.007 328.000,357.200 327.640,357.200 327.200 C 357.200 326.760,357.380 326.400,357.600 326.400 C 357.820 326.400,358.000 326.212,358.000 325.982 C 358.000 325.752,358.405 325.130,358.900 324.601 C 360.338 323.063,360.800 322.456,360.800 322.105 C 360.800 321.924,361.160 321.517,361.600 321.200 C 362.040 320.883,362.400 320.390,362.400 320.105 C 362.400 319.819,363.030 318.974,363.800 318.226 C 364.570 317.479,365.200 316.601,365.200 316.275 C 365.200 315.950,365.647 315.260,366.193 314.742 C 366.739 314.224,367.189 313.575,367.193 313.300 C 367.197 313.025,367.380 312.800,367.600 312.800 C 367.820 312.800,368.000 312.530,368.000 312.200 C 368.000 311.870,368.180 311.600,368.400 311.600 C 368.620 311.600,368.800 311.240,368.800 310.800 C 368.800 310.360,368.980 310.000,369.200 310.000 C 369.420 310.000,369.600 309.550,369.600 309.000 C 369.600 308.450,369.793 308.000,370.029 308.000 C 370.666 308.000,371.600 306.947,371.600 306.229 C 371.600 305.883,371.780 305.600,372.000 305.600 C 372.220 305.600,372.400 305.330,372.400 305.000 C 372.400 304.670,372.580 304.400,372.800 304.400 C 373.020 304.400,373.200 304.059,373.200 303.643 C 373.200 303.226,373.470 302.782,373.800 302.655 C 374.130 302.529,374.400 302.059,374.400 301.613 C 374.400 301.166,374.580 300.800,374.800 300.800 C 375.020 300.800,375.200 300.522,375.200 300.183 C 375.200 299.844,375.560 299.180,376.000 298.708 C 376.440 298.236,376.800 297.523,376.800 297.125 C 376.800 296.726,376.967 296.400,377.171 296.400 C 377.598 296.400,378.800 294.141,378.800 293.339 C 378.800 293.042,378.980 292.800,379.200 292.800 C 379.420 292.800,379.600 292.440,379.600 292.000 C 379.600 291.560,379.780 291.200,380.000 291.200 C 380.220 291.200,380.400 290.750,380.400 290.200 C 380.400 289.578,380.627 289.200,381.000 289.200 C 381.373 289.200,381.600 288.822,381.600 288.200 C 381.600 287.650,381.780 287.200,382.000 287.200 C 382.220 287.200,382.400 286.660,382.400 286.000 C 382.400 285.340,382.580 284.800,382.800 284.800 C 383.020 284.800,383.200 284.350,383.200 283.800 C 383.200 283.250,383.380 282.800,383.600 282.800 C 383.820 282.800,384.000 282.459,384.000 282.043 C 384.000 281.626,384.270 281.182,384.600 281.055 C 384.930 280.929,385.200 280.459,385.200 280.013 C 385.200 279.566,385.380 279.200,385.600 279.200 C 385.820 279.200,386.000 278.570,386.000 277.800 C 386.000 277.030,386.180 276.400,386.400 276.400 C 386.620 276.400,386.800 276.040,386.800 275.600 C 386.800 275.160,386.972 274.800,387.182 274.800 C 387.392 274.800,387.682 274.170,387.826 273.400 C 387.971 272.630,388.249 272.000,388.445 272.000 C 388.640 272.000,388.800 271.370,388.800 270.600 C 388.800 269.830,388.980 269.200,389.200 269.200 C 389.420 269.200,389.600 268.660,389.600 268.000 C 389.600 267.340,389.780 266.800,390.000 266.800 C 390.220 266.800,390.400 266.189,390.400 265.443 C 390.400 264.605,390.630 263.997,391.000 263.855 C 391.351 263.721,391.600 263.121,391.600 262.413 C 391.600 261.746,391.780 261.200,392.000 261.200 C 392.220 261.200,392.400 260.570,392.400 259.800 C 392.400 259.030,392.580 258.400,392.800 258.400 C 393.020 258.400,393.200 257.590,393.200 256.600 C 393.200 255.610,393.380 254.800,393.600 254.800 C 393.820 254.800,394.000 254.282,394.000 253.649 C 394.000 253.016,394.270 252.274,394.600 252.000 C 394.983 251.682,395.200 250.797,395.200 249.551 C 395.200 248.478,395.380 247.600,395.600 247.600 C 395.820 247.600,396.000 246.790,396.000 245.800 C 396.000 244.810,396.180 244.000,396.400 244.000 C 396.620 244.000,396.800 243.010,396.800 241.800 C 396.800 240.590,396.980 239.600,397.200 239.600 C 397.429 239.600,397.600 238.400,397.600 236.800 C 397.600 234.578,397.724 234.000,398.200 234.000 C 398.679 234.000,398.800 233.404,398.800 231.033 C 398.800 229.016,398.960 228.013,399.300 227.900 C 399.693 227.769,399.800 222.048,399.800 201.087 C 399.800 180.303,399.690 174.330,399.300 173.940 C 399.006 173.646,398.800 172.403,398.800 170.920 C 398.800 168.947,398.670 168.400,398.200 168.400 C 397.724 168.400,397.600 167.822,397.600 165.600 C 397.600 164.000,397.429 162.800,397.200 162.800 C 396.980 162.800,396.800 161.810,396.800 160.600 C 396.800 159.390,396.620 158.400,396.400 158.400 C 396.180 158.400,396.000 157.590,396.000 156.600 C 396.000 155.610,395.820 154.800,395.600 154.800 C 395.380 154.800,395.200 154.003,395.200 153.029 C 395.200 151.987,394.953 151.010,394.600 150.657 C 394.270 150.327,394.000 149.504,394.000 148.829 C 394.000 148.153,393.820 147.600,393.600 147.600 C 393.380 147.600,393.200 146.790,393.200 145.800 C 393.200 144.810,393.020 144.000,392.800 144.000 C 392.580 144.000,392.400 143.370,392.400 142.600 C 392.400 141.830,392.220 141.200,392.000 141.200 C 391.780 141.200,391.600 140.654,391.600 139.987 C 391.600 139.279,391.351 138.679,391.000 138.545 C 390.658 138.413,390.400 137.817,390.400 137.157 C 390.400 136.521,390.220 136.000,390.000 136.000 C 389.780 136.000,389.600 135.370,389.600 134.600 C 389.600 133.830,389.420 133.200,389.200 133.200 C 388.980 133.200,388.800 132.570,388.800 131.800 C 388.800 131.030,388.628 130.400,388.418 130.400 C 388.208 130.400,387.918 129.770,387.774 129.000 C 387.629 128.230,387.351 127.600,387.155 127.600 C 386.960 127.600,386.800 127.240,386.800 126.800 C 386.800 126.360,386.620 126.000,386.400 126.000 C 386.180 126.000,386.000 125.370,386.000 124.600 C 386.000 123.830,385.820 123.200,385.600 123.200 C 385.380 123.200,385.200 122.859,385.200 122.443 C 385.200 122.026,384.930 121.582,384.600 121.455 C 384.270 121.329,384.000 120.859,384.000 120.413 C 384.000 119.966,383.820 119.600,383.600 119.600 C 383.380 119.600,383.200 118.970,383.200 118.200 C 383.200 117.430,383.020 116.800,382.800 116.800 C 382.580 116.800,382.400 116.440,382.400 116.000 C 382.400 115.560,382.220 115.200,382.000 115.200 C 381.780 115.200,381.600 114.834,381.600 114.387 C 381.600 113.941,381.330 113.471,381.000 113.345 C 380.670 113.218,380.400 112.774,380.400 112.357 C 380.400 111.941,380.220 111.600,380.000 111.600 C 379.780 111.600,379.600 111.150,379.600 110.600 C 379.600 110.050,379.420 109.600,379.200 109.600 C 378.980 109.600,378.800 109.240,378.800 108.800 C 378.800 108.360,378.620 108.000,378.400 108.000 C 378.180 108.000,378.000 107.634,378.000 107.187 C 378.000 106.741,377.730 106.271,377.400 106.145 C 377.070 106.018,376.800 105.574,376.800 105.157 C 376.800 104.741,376.620 104.400,376.400 104.400 C 376.180 104.400,376.000 104.130,376.000 103.800 C 376.000 103.470,375.820 103.200,375.600 103.200 C 375.380 103.200,375.200 102.840,375.200 102.400 C 375.200 101.960,375.020 101.600,374.800 101.600 C 374.580 101.600,374.400 101.234,374.400 100.787 C 374.400 100.341,374.130 99.871,373.800 99.745 C 373.470 99.618,373.200 99.213,373.200 98.846 C 373.200 98.478,372.840 97.917,372.400 97.600 C 371.960 97.283,371.600 96.613,371.600 96.112 C 371.600 95.610,371.420 95.200,371.200 95.200 C 370.980 95.200,370.800 94.924,370.800 94.587 C 370.800 94.251,370.530 93.871,370.200 93.745 C 369.870 93.618,369.600 93.264,369.600 92.957 C 369.600 92.651,369.420 92.400,369.200 92.400 C 368.980 92.400,368.800 92.080,368.800 91.688 C 368.800 91.297,368.440 90.717,368.000 90.400 C 367.560 90.083,367.200 89.601,367.200 89.330 C 367.200 89.058,366.750 88.386,366.200 87.836 C 365.650 87.286,365.200 86.550,365.200 86.200 C 365.200 85.490,363.469 83.600,362.818 83.600 C 362.588 83.600,362.400 83.222,362.400 82.760 C 362.400 82.299,361.860 81.417,361.200 80.800 C 360.540 80.183,360.000 79.487,360.000 79.253 C 360.000 79.018,359.370 78.197,358.600 77.427 C 357.830 76.657,357.200 75.794,357.200 75.510 C 357.200 75.225,356.574 74.454,355.809 73.796 C 355.043 73.138,354.413 72.452,354.409 72.271 C 354.396 71.794,353.329 70.800,352.829 70.800 C 352.593 70.800,352.400 70.517,352.400 70.171 C 352.400 69.826,352.175 69.315,351.900 69.037 C 351.625 68.759,351.042 68.052,350.605 67.466 C 350.168 66.880,349.660 66.400,349.476 66.400 C 349.090 66.400,348.000 65.374,348.000 65.010 C 348.000 64.689,346.111 62.800,345.790 62.800 C 345.469 62.800,344.400 61.731,344.400 61.410 C 344.400 61.089,342.511 59.200,342.190 59.200 C 341.869 59.200,340.800 58.131,340.800 57.810 C 340.800 57.489,338.911 55.600,338.590 55.600 C 338.269 55.600,337.200 54.531,337.200 54.210 C 337.200 53.889,335.311 52.000,334.990 52.000 C 334.664 52.000,333.600 50.928,333.600 50.600 C 333.600 50.185,332.495 49.200,332.029 49.200 C 331.793 49.200,331.600 49.020,331.600 48.800 C 331.600 48.580,331.240 48.400,330.800 48.400 C 330.360 48.400,330.000 48.173,330.000 47.895 C 330.000 47.617,329.522 47.032,328.938 46.595 C 328.354 46.158,327.345 45.305,326.696 44.700 C 326.047 44.095,325.350 43.600,325.147 43.600 C 324.945 43.600,323.969 42.790,322.979 41.800 C 321.989 40.810,320.953 40.000,320.678 40.000 C 320.402 40.000,319.917 39.640,319.600 39.200 C 319.283 38.760,318.690 38.400,318.283 38.400 C 317.553 38.400,316.400 37.526,316.400 36.973 C 316.400 36.528,315.067 35.627,314.388 35.613 C 314.052 35.606,313.517 35.240,313.200 34.800 C 312.883 34.360,312.385 34.000,312.093 34.000 C 311.801 34.000,311.145 33.550,310.635 33.000 C 310.125 32.450,309.496 32.000,309.237 32.000 C 308.978 32.000,308.380 31.640,307.908 31.200 C 307.436 30.760,306.723 30.400,306.325 30.400 C 305.926 30.400,305.600 30.130,305.600 29.800 C 305.600 29.467,305.244 29.200,304.800 29.200 C 304.360 29.200,304.000 29.020,304.000 28.800 C 304.000 28.580,303.730 28.400,303.400 28.400 C 303.070 28.400,302.800 28.220,302.800 28.000 C 302.800 27.780,302.440 27.600,302.000 27.600 C 301.560 27.600,301.200 27.420,301.200 27.200 C 301.200 26.980,300.750 26.800,300.200 26.800 C 299.650 26.800,299.200 26.607,299.200 26.371 C 299.200 25.666,298.114 24.800,297.229 24.800 C 296.773 24.800,296.400 24.620,296.400 24.400 C 296.400 24.180,296.040 24.000,295.600 24.000 C 295.160 24.000,294.800 23.820,294.800 23.600 C 294.800 23.380,294.350 23.200,293.800 23.200 C 293.178 23.200,292.800 22.973,292.800 22.600 C 292.800 22.267,292.444 22.000,292.000 22.000 C 291.560 22.000,291.200 21.820,291.200 21.600 C 291.200 21.380,290.750 21.200,290.200 21.200 C 289.650 21.200,289.200 21.020,289.200 20.800 C 289.200 20.580,288.840 20.400,288.400 20.400 C 287.960 20.400,287.600 20.220,287.600 20.000 C 287.600 19.780,287.150 19.600,286.600 19.600 C 285.978 19.600,285.600 19.373,285.600 19.000 C 285.600 18.667,285.244 18.400,284.800 18.400 C 284.360 18.400,284.000 18.220,284.000 18.000 C 284.000 17.780,283.370 17.600,282.600 17.600 C 281.830 17.600,281.200 17.420,281.200 17.200 C 281.200 16.980,280.840 16.800,280.400 16.800 C 279.960 16.800,279.600 16.640,279.600 16.443 C 279.600 16.247,279.150 15.974,278.600 15.836 C 278.050 15.698,277.600 15.408,277.600 15.192 C 277.600 14.977,276.970 14.800,276.200 14.800 C 275.430 14.800,274.800 14.620,274.800 14.400 C 274.800 14.180,274.440 14.000,274.000 14.000 C 273.560 14.000,273.200 13.820,273.200 13.600 C 273.200 13.380,272.589 13.200,271.843 13.200 C 271.005 13.200,270.397 12.970,270.255 12.600 C 270.121 12.249,269.521 12.000,268.813 12.000 C 268.146 12.000,267.600 11.820,267.600 11.600 C 267.600 11.380,267.251 11.200,266.824 11.200 C 266.397 11.200,265.936 11.020,265.800 10.800 C 265.664 10.580,265.023 10.400,264.376 10.400 C 263.729 10.400,263.200 10.220,263.200 10.000 C 263.200 9.780,262.647 9.600,261.971 9.600 C 261.296 9.600,260.473 9.330,260.143 9.000 C 259.813 8.670,258.926 8.400,258.171 8.400 C 257.417 8.400,256.800 8.220,256.800 8.000 C 256.800 7.780,256.170 7.600,255.400 7.600 C 254.630 7.600,254.000 7.420,254.000 7.200 C 254.000 6.980,253.190 6.800,252.200 6.800 C 251.210 6.800,250.400 6.620,250.400 6.400 C 250.400 6.180,249.609 6.000,248.643 6.000 C 247.450 6.000,246.812 5.807,246.655 5.400 C 246.493 4.977,245.832 4.800,244.413 4.800 C 243.306 4.800,242.400 4.620,242.400 4.400 C 242.400 4.180,241.410 4.000,240.200 4.000 C 238.990 4.000,238.000 3.820,238.000 3.600 C 238.000 3.378,236.933 3.200,235.600 3.200 C 234.267 3.200,233.200 3.022,233.200 2.800 C 233.200 2.569,231.948 2.400,230.243 2.400 C 227.983 2.400,227.231 2.258,227.055 1.800 C 226.872 1.322,226.010 1.200,222.813 1.200 C 220.404 1.200,218.800 1.040,218.800 0.800 C 218.800 0.539,212.267 0.400,200.000 0.400 C 187.733 0.400,181.200 0.539,181.200 0.800 M218.200 12.770 C 225.270 13.502,231.435 14.403,236.200 15.403 C 237.960 15.772,239.850 16.159,240.400 16.263 C 242.161 16.595,248.133 18.050,250.200 18.650 C 256.253 20.408,264.316 23.028,266.600 23.979 C 267.040 24.162,268.840 24.892,270.600 25.601 C 276.486 27.974,277.763 28.560,285.000 32.217 C 303.445 41.535,317.238 51.475,333.066 66.856 C 335.596 69.314,336.514 70.279,341.025 75.220 C 343.551 77.987,350.005 85.942,352.000 88.749 C 352.990 90.142,354.168 91.758,354.619 92.341 C 360.485 99.932,370.591 118.554,375.380 130.600 C 375.992 132.140,376.638 133.760,376.815 134.200 C 377.857 136.797,379.200 140.689,379.200 141.114 C 379.200 141.387,379.364 141.923,379.564 142.305 C 380.779 144.621,384.577 159.576,385.963 167.500 C 389.842 189.682,390.075 207.884,386.765 230.200 C 384.928 242.584,380.731 258.606,376.809 268.200 C 376.629 268.640,375.724 270.890,374.797 273.200 C 371.650 281.045,365.886 292.762,363.551 296.062 C 363.138 296.646,362.800 297.231,362.800 297.363 C 362.800 297.961,354.355 310.642,351.069 314.978 C 341.029 328.224,327.689 341.928,317.154 349.817 C 316.579 350.248,314.419 351.874,312.354 353.430 C 308.660 356.216,302.968 360.166,301.400 361.034 C 300.960 361.277,298.980 362.486,297.000 363.720 C 292.908 366.271,291.822 366.865,284.600 370.500 C 273.981 375.845,261.446 380.765,251.600 383.452 C 246.658 384.801,242.065 385.950,239.800 386.403 C 238.480 386.668,236.590 387.048,235.600 387.249 C 234.610 387.450,232.720 387.783,231.400 387.989 C 230.080 388.196,228.370 388.465,227.600 388.587 C 212.393 391.011,191.481 391.271,177.000 389.214 C 175.460 388.996,173.480 388.718,172.600 388.598 C 169.945 388.234,166.308 387.636,164.400 387.249 C 163.410 387.048,161.520 386.668,160.200 386.403 C 157.935 385.950,153.342 384.801,148.400 383.452 C 138.554 380.765,126.019 375.845,115.400 370.500 C 108.178 366.865,107.092 366.271,103.000 363.720 C 101.020 362.486,99.040 361.277,98.600 361.034 C 97.032 360.166,91.340 356.216,87.646 353.430 C 85.581 351.874,83.421 350.248,82.846 349.817 C 72.311 341.928,58.971 328.224,48.931 314.978 C 45.645 310.642,37.200 297.961,37.200 297.363 C 37.200 297.231,36.862 296.646,36.449 296.062 C 34.114 292.762,28.350 281.045,25.203 273.200 C 24.276 270.890,23.371 268.640,23.191 268.200 C 14.266 246.364,9.479 214.414,11.384 189.400 C 11.999 181.330,12.619 175.476,13.205 172.200 C 13.402 171.100,13.767 169.030,14.016 167.600 C 14.537 164.608,16.257 156.466,16.805 154.400 C 17.335 152.397,19.179 145.982,19.563 144.800 C 19.742 144.250,20.108 143.080,20.377 142.200 C 20.872 140.579,22.597 135.666,23.185 134.200 C 23.362 133.760,24.008 132.140,24.620 130.600 C 29.409 118.554,39.515 99.932,45.381 92.341 C 45.832 91.758,47.010 90.142,48.000 88.749 C 49.995 85.942,56.449 77.987,58.975 75.220 C 63.486 70.279,64.404 69.314,66.934 66.856 C 82.762 51.475,96.555 41.535,115.000 32.217 C 122.237 28.560,123.514 27.974,129.400 25.601 C 131.160 24.892,132.960 24.152,133.400 23.956 C 134.605 23.421,146.286 19.598,148.800 18.917 C 153.370 17.678,157.061 16.757,158.800 16.422 C 159.790 16.232,162.040 15.774,163.800 15.406 C 169.675 14.176,175.089 13.435,182.800 12.804 C 185.770 12.562,188.380 12.286,188.600 12.192 C 189.352 11.870,214.191 12.356,218.200 12.770 M129.200 201.200 L 129.200 331.220 135.500 331.110 L 141.800 331.000 141.800 201.200 L 141.800 71.400 135.500 71.290 L 129.200 71.180 129.200 201.200 M259.200 201.200 L 259.200 331.220 265.500 331.110 L 271.800 331.000 271.800 201.200 L 271.800 71.400 265.500 71.290 L 259.200 71.180 259.200 201.200 " stroke="none" fill="#ffffff" fill-rule="evenodd"></path><path id="path2" d="M194.189 71.690 C 194.082 71.970,194.041 130.430,194.098 201.600 L 194.200 331.000 200.400 331.000 L 206.600 331.000 206.600 201.200 L 206.600 71.400 200.491 71.290 C 195.824 71.205,194.337 71.300,194.189 71.690 " stroke="none" fill="#542c94" fill-rule="evenodd"></path><path id="path3" d="M194.261 71.100 C 194.159 71.265,196.894 71.400,200.338 71.400 L 206.600 71.400 206.600 201.200 L 206.600 331.000 200.300 331.000 C 196.835 331.000,194.000 331.139,194.000 331.310 C 194.000 331.480,196.925 331.570,200.500 331.510 L 207.000 331.400 207.101 201.424 C 207.181 97.707,207.100 71.384,206.701 71.130 C 206.064 70.726,194.510 70.698,194.261 71.100 " stroke="none" fill="#e8c0c8" fill-rule="evenodd"></path><path id="path4" d="M194.261 71.100 C 194.159 71.265,196.894 71.400,200.338 71.400 L 206.600 71.400 206.600 201.200 L 206.600 331.000 200.300 331.000 C 196.835 331.000,194.000 331.139,194.000 331.310 C 194.000 331.480,196.925 331.570,200.500 331.510 L 207.000 331.400 207.101 201.424 C 207.181 97.707,207.100 71.384,206.701 71.130 C 206.064 70.726,194.510 70.698,194.261 71.100 " stroke="none" fill="#e8c0c8" fill-rule="evenodd"></path></g></svg>